<?xml version="1.0" encoding="UTF-8" standalone="no"?>
<!-- Created with Inkscape (http://www.inkscape.org/) -->
<svg
   xmlns:dc="http://purl.org/dc/elements/1.1/"
   xmlns:cc="http://web.resource.org/cc/"
   xmlns:rdf="http://www.w3.org/1999/02/22-rdf-syntax-ns#"
   xmlns:svg="http://www.w3.org/2000/svg"
   xmlns="http://www.w3.org/2000/svg"
   xmlns:sodipodi="http://sodipodi.sourceforge.net/DTD/sodipodi-0.dtd"
   xmlns:inkscape="http://www.inkscape.org/namespaces/inkscape"
   id="svg2"
   sodipodi:version="0.32"
   inkscape:version="0.44+devel"
   width="580.75818"
   height="308.70233"
   sodipodi:docbase="C:\Documents and Settings\Molumen\Desktop"
   sodipodi:docname="drunken_duck_bus.svg"
   version="1.0"
   inkscape:output_extension="org.inkscape.output.svg.inkscape"
   sodipodi:modified="true">
  <metadata
     id="metadata7">
    <rdf:RDF>
      <cc:Work
         rdf:about="">
        <dc:format>image/svg+xml</dc:format>
        <dc:type
           rdf:resource="http://purl.org/dc/dcmitype/StillImage" />
      </cc:Work>
    </rdf:RDF>
  </metadata>
  <defs
     id="defs5" />
  <sodipodi:namedview
     inkscape:window-height="975"
     inkscape:window-width="1280"
     inkscape:pageshadow="2"
     inkscape:pageopacity="0.0"
     borderopacity="1.0"
     bordercolor="#666666"
     pagecolor="#ffffff"
     id="base"
     inkscape:zoom="1.0051974"
     inkscape:cx="220.68218"
     inkscape:cy="174.75176"
     inkscape:window-x="44"
     inkscape:window-y="58"
     inkscape:current-layer="svg2" />
  <g
     id="g17987"
     transform="matrix(0.3814063,-0.2140981,0.2140981,0.3814063,-286.49702,-257.19082)">
    <path
       transform="matrix(1.201678,0,0,1.201678,-55.09568,-655.4326)"
       sodipodi:open="true"
       sodipodi:end="6.2552769"
       sodipodi:start="0"
       d="M 157.18306,1705.4678 A 49.244057,51.233719 0 1 1 157.16388,1704.0381"
       sodipodi:ry="51.233719"
       sodipodi:rx="49.244057"
       sodipodi:cy="1705.4678"
       sodipodi:cx="107.939"
       id="path16231"
       style="opacity:1;fill:#ffffff;fill-opacity:1;stroke:#000000;stroke-width:5.0999999;stroke-miterlimit:4;stroke-dasharray:none;stroke-opacity:1"
       sodipodi:type="arc" />
    <path
       transform="translate(-9.450889,-290.9876)"
       sodipodi:open="true"
       sodipodi:end="6.2552769"
       sodipodi:start="0"
       d="M 157.18306,1705.4678 A 49.244057,51.233719 0 1 1 157.16388,1704.0381"
       sodipodi:ry="51.233719"
       sodipodi:rx="49.244057"
       sodipodi:cy="1705.4678"
       sodipodi:cx="107.939"
       id="path17106"
       style="opacity:1;fill:#ffffff;fill-opacity:1;stroke:#000000;stroke-width:5.0999999;stroke-miterlimit:4;stroke-dasharray:none;stroke-opacity:1"
       sodipodi:type="arc" />
    <path
       transform="matrix(0.805783,0,0,0.805783,33.28796,65.61122)"
       sodipodi:open="true"
       sodipodi:end="6.2552769"
       sodipodi:start="0"
       d="M 157.18306,1705.4678 A 49.244057,51.233719 0 1 1 157.16388,1704.0381"
       sodipodi:ry="51.233719"
       sodipodi:rx="49.244057"
       sodipodi:cy="1705.4678"
       sodipodi:cx="107.939"
       id="path17110"
       style="opacity:1;fill:#ffffff;fill-opacity:1;stroke:#000000;stroke-width:5.0999999;stroke-miterlimit:4;stroke-dasharray:none;stroke-opacity:1"
       sodipodi:type="arc" />
    <path
       transform="matrix(0.733939,0,0,0.733939,58.21309,209.1464)"
       sodipodi:open="true"
       sodipodi:end="6.2552769"
       sodipodi:start="0"
       d="M 157.18306,1705.4678 A 49.244057,51.233719 0 1 1 157.16388,1704.0381"
       sodipodi:ry="51.233719"
       sodipodi:rx="49.244057"
       sodipodi:cy="1705.4678"
       sodipodi:cx="107.939"
       id="path17108"
       style="opacity:1;fill:#ffffff;fill-opacity:1;stroke:#000000;stroke-width:5.0999999;stroke-miterlimit:4;stroke-dasharray:none;stroke-opacity:1"
       sodipodi:type="arc" />
    <path
       sodipodi:nodetypes="cssss"
       id="path17112"
       d="M 144.25027,1442.3353 C 132.54986,1411.8125 105.34107,1363.6884 81.576016,1351.8059 C 68.86399,1345.4499 29.924858,1374.8523 34.819031,1387.6197 C 45.178909,1414.6455 98.576161,1456.8044 127.33817,1471.1854 C 135.05324,1475.0429 147.80391,1451.6057 144.25027,1442.3353 z "
       style="fill:#ffffff;fill-opacity:1;fill-rule:evenodd;stroke:none;stroke-width:1px;stroke-linecap:butt;stroke-linejoin:miter;stroke-opacity:1" />
  </g>
  <g
     id="g17994"
     transform="matrix(0.3230409,-9.2165242e-2,9.2165242e-2,0.3230409,-97.230657,-193.82019)">
    <path
       transform="matrix(1.201678,0,0,1.201678,-55.09568,-655.4326)"
       sodipodi:open="true"
       sodipodi:end="6.2552769"
       sodipodi:start="0"
       d="M 157.18306,1705.4678 A 49.244057,51.233719 0 1 1 157.16388,1704.0381"
       sodipodi:ry="51.233719"
       sodipodi:rx="49.244057"
       sodipodi:cy="1705.4678"
       sodipodi:cx="107.939"
       id="path17996"
       style="opacity:1;fill:#ffffff;fill-opacity:1;stroke:#000000;stroke-width:5.0999999;stroke-miterlimit:4;stroke-dasharray:none;stroke-opacity:1"
       sodipodi:type="arc" />
    <path
       transform="translate(-9.450889,-290.9876)"
       sodipodi:open="true"
       sodipodi:end="6.2552769"
       sodipodi:start="0"
       d="M 157.18306,1705.4678 A 49.244057,51.233719 0 1 1 157.16388,1704.0381"
       sodipodi:ry="51.233719"
       sodipodi:rx="49.244057"
       sodipodi:cy="1705.4678"
       sodipodi:cx="107.939"
       id="path17998"
       style="opacity:1;fill:#ffffff;fill-opacity:1;stroke:#000000;stroke-width:5.0999999;stroke-miterlimit:4;stroke-dasharray:none;stroke-opacity:1"
       sodipodi:type="arc" />
    <path
       transform="matrix(0.805783,0,0,0.805783,33.28796,65.61122)"
       sodipodi:open="true"
       sodipodi:end="6.2552769"
       sodipodi:start="0"
       d="M 157.18306,1705.4678 A 49.244057,51.233719 0 1 1 157.16388,1704.0381"
       sodipodi:ry="51.233719"
       sodipodi:rx="49.244057"
       sodipodi:cy="1705.4678"
       sodipodi:cx="107.939"
       id="path18000"
       style="opacity:1;fill:#ffffff;fill-opacity:1;stroke:#000000;stroke-width:5.0999999;stroke-miterlimit:4;stroke-dasharray:none;stroke-opacity:1"
       sodipodi:type="arc" />
    <path
       transform="matrix(0.733939,0,0,0.733939,58.21309,209.1464)"
       sodipodi:open="true"
       sodipodi:end="6.2552769"
       sodipodi:start="0"
       d="M 157.18306,1705.4678 A 49.244057,51.233719 0 1 1 157.16388,1704.0381"
       sodipodi:ry="51.233719"
       sodipodi:rx="49.244057"
       sodipodi:cy="1705.4678"
       sodipodi:cx="107.939"
       id="path18002"
       style="opacity:1;fill:#ffffff;fill-opacity:1;stroke:#000000;stroke-width:5.0999999;stroke-miterlimit:4;stroke-dasharray:none;stroke-opacity:1"
       sodipodi:type="arc" />
    <path
       sodipodi:nodetypes="cssss"
       id="path18004"
       d="M 144.25027,1442.3353 C 132.54986,1411.8125 105.34107,1363.6884 81.576016,1351.8059 C 68.86399,1345.4499 29.924858,1374.8523 34.819031,1387.6197 C 45.178909,1414.6455 98.576161,1456.8044 127.33817,1471.1854 C 135.05324,1475.0429 147.80391,1451.6057 144.25027,1442.3353 z "
       style="fill:#ffffff;fill-opacity:1;fill-rule:evenodd;stroke:none;stroke-width:1px;stroke-linecap:butt;stroke-linejoin:miter;stroke-opacity:1" />
  </g>
  <path
     style="fill:#ffffff;fill-opacity:1;fill-rule:evenodd;stroke:#000000;stroke-width:2.23068237;stroke-linecap:butt;stroke-linejoin:miter;stroke-miterlimit:4;stroke-dasharray:none;stroke-opacity:1"
     d="M 200.82383,213.21046 C 182.11336,209.18552 154.70035,235.07557 145.12755,256.72316 C 135.55476,278.37075 143.82217,295.7758 162.53264,299.80074 C 181.24312,303.82568 210.39663,294.47046 219.96943,272.82287 C 229.54223,251.17528 219.5343,217.23536 200.82383,213.21046 z "
     id="path3979"
     sodipodi:nodetypes="cssss" />
  <path
     style="fill:#ffffff;fill-opacity:1;fill-rule:evenodd;stroke:#000000;stroke-width:2.23068237;stroke-linecap:butt;stroke-linejoin:miter;stroke-miterlimit:4;stroke-dasharray:none;stroke-opacity:1"
     d="M 472.81137,212.16108 C 454.10093,208.13618 426.68792,234.02622 417.11512,255.67382 C 407.54232,277.32141 415.80974,294.72647 434.52021,298.75141 C 453.23068,302.77634 482.38414,293.42112 491.95696,271.77354 C 501.52974,250.12594 491.52184,216.18602 472.81137,212.16108 z "
     id="path3981"
     sodipodi:nodetypes="cssss" />
  <path
     id="path3961"
     style="fill:#ffffff;fill-opacity:1;fill-rule:evenodd;stroke:#000000;stroke-width:2.23068237;stroke-linecap:butt;stroke-linejoin:miter;stroke-miterlimit:4;stroke-opacity:1"
     d="M 95.342178,252.31004 L 94.726813,231.38768 L 100.26507,227.69551 L 97.188265,216.61899 L 100.88044,214.7729 L 101.49581,194.46591 L 95.342178,192.61982 L 95.957534,184.00475 L 102.11116,180.31257 C 107.54687,140.51912 108.67504,97.956523 123.0335,64.624405 L 119.95669,56.624652 C 160.77575,21.959234 253.28529,17.446556 329.18003,11.703166 C 499.57662,-4.7690724 557.06936,37.753553 564.86397,57.240008 L 542.7109,62.778318 L 538.40336,79.393093 L 548.24915,159.39026 L 561.17181,158.15954 L 566.71006,166.15924 L 553.17205,176.00504 L 543.94162,217.23436 L 551.32597,217.84971 L 547.63379,250.46395 L 543.94162,265.23265 L 495.32796,283.38585 C 478.8157,266.66846 520.76299,230.56718 462.71376,219.08043 C 441.17606,216.41385 425.79199,246.36151 412.86936,273.23235 C 348.46139,277.33476 279.74588,278.36039 214.72256,275.07844 C 215.54304,264.61728 241.41316,232.10863 198.10776,220.92652 C 150.20901,212.65909 167.1345,252.92541 145.80192,265.84801 L 92.26536,262.15583 L 95.342178,252.31004 z M 565.23795,57.964966 C 561.45989,84.514467 561.74556,132.14796 560.58143,157.50931"
     sodipodi:nodetypes="ccccccccccccccccccccccccccccccccs" />
  <path
     style="fill:#000000;fill-opacity:1;fill-rule:evenodd;stroke:#000000;stroke-width:2.23068237;stroke-linecap:butt;stroke-linejoin:miter;stroke-miterlimit:4;stroke-dasharray:none;stroke-opacity:1"
     d="M 459.29107,246.11898 C 454.60277,245.11049 447.73395,251.5977 445.33531,257.02189 C 442.93666,262.44613 445.00821,266.80729 449.69648,267.81577 C 454.38473,268.82431 461.68971,266.48021 464.08835,261.05598 C 466.48699,255.63179 463.9793,247.12751 459.29107,246.11898 z "
     id="path5731"
     sodipodi:nodetypes="cssss" />
  <path
     style="fill:#ffffff;fill-opacity:1;fill-rule:evenodd;stroke:#000000;stroke-width:2.23068237;stroke-linecap:butt;stroke-linejoin:miter;stroke-miterlimit:4;stroke-dasharray:none;stroke-opacity:1"
     d="M 514.59384,273.06505 C 514.08105,224.24622 549.56692,261.27061 558.59226,247.21984 C 564.33566,246.91214 562.07934,260.14244 557.66923,267.83445 C 554.59242,275.73163 522.59355,273.47528 514.59384,273.06505 z "
     id="path3965"
     sodipodi:nodetypes="cccc" />
  <path
     style="fill:#ffffff;fill-opacity:1;fill-rule:evenodd;stroke:#000000;stroke-width:2.23068237;stroke-linecap:butt;stroke-linejoin:miter;stroke-miterlimit:4;stroke-dasharray:none;stroke-opacity:1"
     d="M 560.36679,213.68254 C 565.49482,205.78535 566.62294,186.19637 560.67445,178.29919 C 549.70049,161.68436 542.72637,211.83645 545.59809,215.83628 C 554.52082,216.65683 552.36708,214.09277 560.36679,213.68254 z "
     id="path3967"
     sodipodi:nodetypes="cccc" />
  <path
     style="fill:#ffffff;fill-opacity:1;fill-rule:evenodd;stroke:#000000;stroke-width:2.23068237;stroke-linecap:butt;stroke-linejoin:miter;stroke-miterlimit:4;stroke-dasharray:none;stroke-opacity:1"
     d="M 200.56921,75.393221 C 198.92824,104.7255 197.28728,134.0578 195.64631,163.39009 C 174.21117,168.1079 154.31444,166.36434 126.72568,170.15908 C 128.16152,136.31416 128.05896,104.31528 139.34061,76.008577 C 159.75015,75.803487 180.15968,75.598349 200.56921,75.393221 z "
     id="path3969"
     sodipodi:nodetypes="ccccc" />
  <path
     style="fill:#ffffff;fill-opacity:1;fill-rule:evenodd;stroke:#000000;stroke-width:2.23068237;stroke-linecap:butt;stroke-linejoin:miter;stroke-miterlimit:4;stroke-dasharray:none;stroke-opacity:1"
     d="M 287.95072,69.547301 C 284.46366,96.418143 283.13038,166.9797 278.10491,164.31316 C 260.05428,165.64646 232.46551,163.28752 204.87675,164.31316 C 206.3126,130.46819 208.05612,101.54613 209.18429,71.393388 C 229.59382,71.18825 267.54119,69.752391 287.95072,69.547301 z "
     id="path3971"
     sodipodi:nodetypes="ccccc" />
  <path
     style="fill:#ffffff;fill-opacity:1;fill-rule:evenodd;stroke:#000000;stroke-width:2.23068237;stroke-linecap:butt;stroke-linejoin:miter;stroke-miterlimit:4;stroke-dasharray:none;stroke-opacity:1"
     d="M 365.79411,68.31657 C 364.15314,97.648864 364.05058,133.13478 362.40961,162.46707 C 340.97448,167.18484 316.15485,166.05667 288.2584,162.46707 C 289.69425,128.6221 291.13009,104.62294 294.41204,70.470316 C 314.82157,70.265226 345.38458,68.521669 365.79411,68.31657 z "
     id="path3973"
     sodipodi:nodetypes="ccccc" />
  <path
     style="fill:#ffffff;fill-opacity:1;fill-rule:evenodd;stroke:#000000;stroke-width:2.23068237;stroke-linecap:butt;stroke-linejoin:miter;stroke-miterlimit:4;stroke-dasharray:none;stroke-opacity:1"
     d="M 451.63722,67.085848 C 449.99625,96.418143 449.58601,135.59623 443.94518,164.00546 C 422.51004,168.72326 396.45969,164.51825 369.17861,162.77474 C 370.61446,128.92981 369.28117,96.93094 372.87078,66.162785 C 393.28032,65.957648 431.22768,67.290938 451.63722,67.085848 z "
     id="path3975"
     sodipodi:nodetypes="ccccc" />
  <path
     style="fill:#ffffff;fill-opacity:1;fill-rule:evenodd;stroke:#000000;stroke-width:2.23068237;stroke-linecap:butt;stroke-linejoin:miter;stroke-miterlimit:4;stroke-dasharray:none;stroke-opacity:1"
     d="M 525.64289,66.712539 C 530.52879,98.655607 529.7581,130.59867 528.11711,159.93096 C 506.682,168.12977 483.84122,162.82149 456.25244,164.00546 C 457.6883,130.16053 453.89355,95.084852 458.71389,64.932064 C 479.12341,64.726926 504.79817,63.001514 525.64289,66.712539 z "
     id="path3977"
     sodipodi:nodetypes="ccccc" />
  <path
     style="fill:#000000;fill-opacity:1;fill-rule:evenodd;stroke:#000000;stroke-width:0.43738872px;stroke-linecap:butt;stroke-linejoin:miter;stroke-opacity:1"
     d="M 140.50977,167.39316 C 135.86842,167.68324 131.22706,169.51179 126.5857,169.80187 C 130.3568,139.05287 129.205,105.53476 137.899,76.016498 C 158.20494,75.726419 180.35696,75.436303 200.6629,75.146224 C 200.37281,81.237995 198.23665,87.329775 197.94656,93.421545 C 181.70181,87.267928 164.8417,87.267928 149.21231,93.421545 C 141.38856,118.07877 137.87235,140.88986 140.50977,167.39316 z "
     id="path6606"
     sodipodi:nodetypes="ccccccc" />
  <path
     style="fill:#000000;fill-opacity:1;fill-rule:evenodd;stroke:#000000;stroke-width:0.43738872px;stroke-linecap:butt;stroke-linejoin:miter;stroke-opacity:1"
     d="M 210.98601,163.45885 C 206.34465,163.74893 210.31837,163.11603 205.67702,163.40611 C 207.29434,132.3494 210.1424,102.52356 209.29828,71.466863 C 229.60422,71.176794 267.44799,70.271312 287.75394,69.981234 C 287.46385,76.073004 284.40463,93.548956 284.11454,99.640736 C 294.3304,65.488114 236.85634,80.564509 220.6116,80.564509 C 213.71088,91.68376 210.19469,120.64847 210.98601,163.45885 z "
     id="path7481"
     sodipodi:nodetypes="ccccccc" />
  <path
     style="fill:#000000;fill-opacity:1;fill-rule:evenodd;stroke:#000000;stroke-width:0.43738872px;stroke-linecap:butt;stroke-linejoin:miter;stroke-opacity:1"
     d="M 298.60119,163.00191 C 293.95983,163.29199 292.70297,162.65909 288.06162,162.94917 C 291.83271,132.20017 291.29628,101.45122 295.06738,70.702225 C 315.37332,70.412147 345.52506,68.891299 365.83099,68.601231 C 365.5409,74.693001 364.94314,74.631154 364.65305,80.722934 C 344.10077,71.49245 311.85659,74.569307 301.45778,80.722934 C 295.17243,107.22623 295.34841,138.03703 298.60119,163.00191 z "
     id="path7483"
     sodipodi:nodetypes="ccccccc" />
  <path
     style="fill:#000000;fill-opacity:1;fill-rule:evenodd;stroke:#000000;stroke-width:0.43738872px;stroke-linecap:butt;stroke-linejoin:miter;stroke-opacity:1"
     d="M 380.69997,162.60678 C 376.05862,162.89685 373.59289,161.44642 368.95154,161.7365 C 372.72264,130.9875 369.96684,96.757561 373.73793,66.008564 C 394.04386,65.718486 430.70799,67.584724 451.01392,67.294645 C 450.72384,73.386416 450.17527,83.413611 449.8852,89.505391 C 450.6104,66.87879 394.33396,74.711069 378.08921,74.711069 C 375.18836,99.368286 370.98213,137.94956 380.69997,162.60678 z "
     id="path7485"
     sodipodi:nodetypes="ccccccc" />
  <path
     style="fill:#000000;fill-opacity:1;fill-rule:evenodd;stroke:#000000;stroke-width:0.43738872px;stroke-linecap:butt;stroke-linejoin:miter;stroke-opacity:1"
     d="M 470.77129,165.21755 C 466.12994,165.50763 461.48859,165.79774 456.84724,166.08782 C 458.00755,135.33882 455.6869,96.322444 459.45798,65.573447 C 479.76392,65.283368 497.4591,64.123026 525.1622,66.44372 C 524.87213,72.53549 526.75766,72.100335 526.46759,78.192114 C 510.65795,64.268056 480.92427,72.100335 464.67952,72.100335 C 461.77867,96.757561 458.87782,144.04133 470.77129,165.21755 z "
     id="path7487"
     sodipodi:nodetypes="ccccccc" />
  <path
     style="fill:none;fill-opacity:0.75;fill-rule:evenodd;stroke:#000000;stroke-width:2.23068237;stroke-linecap:butt;stroke-linejoin:miter;stroke-miterlimit:4;stroke-dasharray:none;stroke-opacity:1"
     d="M 499.27212,277.21563 C 507.03191,244.94368 507.82962,210.93125 456.41209,216.29783 C 403.68918,221.08422 424.28521,247.08838 406.59003,263.6232 C 396.00194,271.67304 382.36796,264.81452 372.86769,268.51308"
     id="path9237"
     sodipodi:nodetypes="cccc" />
  <path
     style="fill:none;fill-opacity:0.75;fill-rule:evenodd;stroke:#000000;stroke-width:2.23068237;stroke-linecap:butt;stroke-linejoin:miter;stroke-miterlimit:4;stroke-dasharray:none;stroke-opacity:1"
     d="M 512.97865,180.44699 L 140.50977,182.18749"
     id="path9241" />
  <path
     style="fill:none;fill-opacity:0.75;fill-rule:evenodd;stroke:#000000;stroke-width:2.23068237;stroke-linecap:butt;stroke-linejoin:miter;stroke-miterlimit:4;stroke-dasharray:none;stroke-opacity:1"
     d="M 509.49761,202.20335 L 153.56358,198.72236"
     id="path9243" />
  <path
     style="fill:none;fill-opacity:0.75;fill-rule:evenodd;stroke:#000000;stroke-width:2.23068237;stroke-linecap:butt;stroke-linejoin:miter;stroke-miterlimit:4;stroke-dasharray:none;stroke-opacity:1"
     d="M 223.78117,269.57347 C 235.2187,245.19727 232.90709,217.21261 194.50022,212.44434 C 142.02372,210.77797 158.53875,253.20127 139.68324,258.5678 C 131.85095,261.03354 126.1943,252.18595 118.79714,254.21653"
     id="path9239"
     sodipodi:nodetypes="cccc" />
  <path
     style="fill:#000000;fill-opacity:1;fill-rule:evenodd;stroke:#000000;stroke-width:2.23068237;stroke-linecap:butt;stroke-linejoin:miter;stroke-miterlimit:4;stroke-dasharray:none;stroke-opacity:1"
     d="M 186.46629,249.75937 C 181.77805,248.75088 174.90921,255.23809 172.51057,260.66228 C 170.11192,266.08652 172.18348,270.44768 176.87173,271.45616 C 181.55999,272.46469 188.86493,270.12059 191.26358,264.69636 C 193.66222,259.27218 191.15456,250.76789 186.46629,249.75937 z "
     id="path5729"
     sodipodi:nodetypes="cssss" />
  <path
     style="fill:#ffffff;fill-opacity:1;fill-rule:evenodd;stroke:#000000;stroke-width:2.23068237;stroke-linecap:butt;stroke-linejoin:miter;stroke-miterlimit:4;stroke-dasharray:none;stroke-opacity:1"
     d="M 120.57205,274.46308 C 123.23863,266.56589 118.52084,250.05372 91.649994,255.38685 C 90.82951,261.54048 91.855113,269.54018 94.726813,273.54001 C 103.64957,274.36055 112.57233,274.8733 120.57205,274.46308 z "
     id="path3963"
     sodipodi:nodetypes="cccc" />
</svg>
