<?xml version="1.0" encoding="UTF-8" standalone="no"?>
<!-- Created with Inkscape (http://www.inkscape.org/) -->
<svg
   xmlns:dc="http://purl.org/dc/elements/1.1/"
   xmlns:cc="http://web.resource.org/cc/"
   xmlns:rdf="http://www.w3.org/1999/02/22-rdf-syntax-ns#"
   xmlns:svg="http://www.w3.org/2000/svg"
   xmlns="http://www.w3.org/2000/svg"
   xmlns:xlink="http://www.w3.org/1999/xlink"
   xmlns:sodipodi="http://sodipodi.sourceforge.net/DTD/sodipodi-0.dtd"
   xmlns:inkscape="http://www.inkscape.org/namespaces/inkscape"
   id="svg1341"
   sodipodi:version="0.32"
   inkscape:version="0.44.1"
   width="1213.069"
   height="383.56543"
   sodipodi:docbase="D:\_petr_\School\INKSCAPE\svg\08.Dopravni prostredky a znacky"
   sodipodi:docname="auto_m.svg"
   version="1.0">
  <metadata
     id="metadata1346">
    <rdf:RDF>
      <cc:Work
         rdf:about="">
        <dc:format>image/svg+xml</dc:format>
        <dc:type
           rdf:resource="http://purl.org/dc/dcmitype/StillImage" />
        <dc:title>auto</dc:title>
        <dc:creator>
          <cc:Agent>
            <dc:title>Kamila Peremska</dc:title>
          </cc:Agent>
        </dc:creator>
        <dc:publisher>
          <cc:Agent>
            <dc:title>ZS a MS Machovo nam.</dc:title>
          </cc:Agent>
        </dc:publisher>
        <dc:language>CZ</dc:language>
        <dc:subject>
          <rdf:Bag>
            <rdf:li>auto</rdf:li>
            <rdf:li>car</rdf:li>
          </rdf:Bag>
        </dc:subject>
        <cc:license
           rdf:resource="http://web.resource.org/cc/PublicDomain" />
      </cc:Work>
      <cc:License
         rdf:about="http://web.resource.org/cc/PublicDomain">
        <cc:permits
           rdf:resource="http://web.resource.org/cc/Reproduction" />
        <cc:permits
           rdf:resource="http://web.resource.org/cc/Distribution" />
        <cc:permits
           rdf:resource="http://web.resource.org/cc/DerivativeWorks" />
      </cc:License>
    </rdf:RDF>
  </metadata>
  <defs
     id="defs1344">
    <linearGradient
       inkscape:collect="always"
       id="linearGradient16739">
      <stop
         style="stop-color:#d1c1c1;stop-opacity:1;"
         offset="0"
         id="stop16741" />
      <stop
         style="stop-color:#d1c1c1;stop-opacity:0;"
         offset="1"
         id="stop16743" />
    </linearGradient>
    <linearGradient
       inkscape:collect="always"
       id="linearGradient14533">
      <stop
         style="stop-color:#6f1d1d;stop-opacity:1;"
         offset="0"
         id="stop14535" />
      <stop
         style="stop-color:#6f1d1d;stop-opacity:0;"
         offset="1"
         id="stop14537" />
    </linearGradient>
    <linearGradient
       inkscape:collect="always"
       id="linearGradient7914">
      <stop
         style="stop-color:#c2bbbb;stop-opacity:1;"
         offset="0"
         id="stop7916" />
      <stop
         style="stop-color:#c2bbbb;stop-opacity:0;"
         offset="1"
         id="stop7918" />
    </linearGradient>
    <linearGradient
       inkscape:collect="always"
       id="linearGradient4267">
      <stop
         style="stop-color:#d8e3ed;stop-opacity:1;"
         offset="0"
         id="stop4269" />
      <stop
         style="stop-color:#d8e3ed;stop-opacity:0;"
         offset="1"
         id="stop4271" />
    </linearGradient>
    <radialGradient
       inkscape:collect="always"
       xlink:href="#linearGradient4267"
       id="radialGradient4273"
       cx="-289.85849"
       cy="370.54468"
       fx="-289.85849"
       fy="370.54468"
       r="274.29773"
       gradientTransform="matrix(0.999852,1.718566e-2,-2.978223e-3,0.173271,698.0543,248.3453)"
       gradientUnits="userSpaceOnUse" />
    <radialGradient
       inkscape:collect="always"
       xlink:href="#linearGradient7914"
       id="radialGradient7920"
       cx="452.2326"
       cy="297.01218"
       fx="452.2326"
       fy="297.01218"
       r="124.39178"
       gradientTransform="matrix(1,0,0,0.229883,0,228.7341)"
       gradientUnits="userSpaceOnUse" />
    <radialGradient
       inkscape:collect="always"
       xlink:href="#linearGradient14533"
       id="radialGradient15273"
       gradientUnits="userSpaceOnUse"
       gradientTransform="matrix(1,0,0,0.942986,749.7261,-46.51354)"
       cx="-22.007996"
       cy="400.12238"
       fx="-22.007996"
       fy="400.12238"
       r="20.250397" />
    <radialGradient
       inkscape:collect="always"
       xlink:href="#linearGradient16739"
       id="radialGradient16745"
       cx="135.36926"
       cy="356.3959"
       fx="135.36926"
       fy="356.3959"
       r="9.9423752"
       gradientTransform="matrix(1,0,0,1.615385,0,-219.3206)"
       gradientUnits="userSpaceOnUse" />
    <radialGradient
       inkscape:collect="always"
       xlink:href="#linearGradient14533"
       id="radialGradient16792"
       gradientUnits="userSpaceOnUse"
       gradientTransform="matrix(1,0,0,0.942986,749.7261,-46.51354)"
       cx="-22.007996"
       cy="400.12238"
       fx="-22.007996"
       fy="400.12238"
       r="20.250397" />
    <radialGradient
       inkscape:collect="always"
       xlink:href="#linearGradient16739"
       id="radialGradient16794"
       gradientUnits="userSpaceOnUse"
       gradientTransform="matrix(1,0,0,1.615385,0,-219.3206)"
       cx="135.36926"
       cy="356.3959"
       fx="135.36926"
       fy="356.3959"
       r="9.9423752" />
    <radialGradient
       inkscape:collect="always"
       xlink:href="#linearGradient7914"
       id="radialGradient2402"
       gradientUnits="userSpaceOnUse"
       gradientTransform="matrix(1.030226,0,0,0.263816,-67.51844,298.7992)"
       cx="452.2326"
       cy="297.01218"
       fx="452.2326"
       fy="297.01218"
       r="124.39178" />
    <radialGradient
       inkscape:collect="always"
       xlink:href="#linearGradient4267"
       id="radialGradient2406"
       gradientUnits="userSpaceOnUse"
       gradientTransform="matrix(1.030074,1.97224e-2,-3.068243e-3,0.198847,651.6352,321.3052)"
       cx="-289.85849"
       cy="370.54468"
       fx="-289.85849"
       fy="370.54468"
       r="274.29773" />
    <radialGradient
       inkscape:collect="always"
       xlink:href="#linearGradient4267"
       id="radialGradient2452"
       gradientUnits="userSpaceOnUse"
       gradientTransform="matrix(1.030074,1.97224e-2,-3.068243e-3,0.198847,651.6352,321.3052)"
       cx="-289.85849"
       cy="370.54468"
       fx="-289.85849"
       fy="370.54468"
       r="274.29773" />
    <radialGradient
       inkscape:collect="always"
       xlink:href="#linearGradient7914"
       id="radialGradient2454"
       gradientUnits="userSpaceOnUse"
       gradientTransform="matrix(1.030226,0,0,0.263816,-67.51844,298.7992)"
       cx="452.2326"
       cy="297.01218"
       fx="452.2326"
       fy="297.01218"
       r="124.39178" />
    <radialGradient
       inkscape:collect="always"
       xlink:href="#linearGradient14533"
       id="radialGradient2456"
       gradientUnits="userSpaceOnUse"
       gradientTransform="matrix(1,0,0,0.942986,749.7261,-46.51354)"
       cx="-22.007996"
       cy="400.12238"
       fx="-22.007996"
       fy="400.12238"
       r="20.250397" />
    <radialGradient
       inkscape:collect="always"
       xlink:href="#linearGradient16739"
       id="radialGradient2458"
       gradientUnits="userSpaceOnUse"
       gradientTransform="matrix(1,0,0,1.615385,0,-219.3206)"
       cx="135.36926"
       cy="356.3959"
       fx="135.36926"
       fy="356.3959"
       r="9.9423752" />
  </defs>
  <sodipodi:namedview
     inkscape:window-height="721"
     inkscape:window-width="1024"
     inkscape:pageshadow="2"
     inkscape:pageopacity="0.0"
     borderopacity="1.0"
     bordercolor="#666666"
     pagecolor="#ffffff"
     id="base"
     inkscape:zoom="0.46228331"
     inkscape:cx="803.68262"
     inkscape:cy="173.52339"
     inkscape:window-x="-4"
     inkscape:window-y="-4"
     inkscape:current-layer="svg1341"
     width="1052.3622px"
     height="744.09448px" />
  <g
     id="g2411"
     transform="matrix(1.940593,0,0,1.796592,-86.12762,-583.6053)"
     inkscape:export-filename="/home/lamatin/Projekt_Kliparty/9.C prace/Kamca/Obrázky Inkscape/auto_m.png"
     inkscape:export-xdpi="90"
     inkscape:export-ydpi="90">
    <path
       sodipodi:nodetypes="ccccccccccccccccscccccccccccccccccccccc"
       id="path1350"
       d="M 47.517131,498.84392 C 43.774536,488.31165 45.153391,470.75789 45.153391,470.75789 L 45.941307,457.59256 L 52.244622,457.59256 C 52.244622,457.59256 51.05401,440.64968 62.093562,426.87346 C 73.527072,420.5576 65.540687,424.02098 98.337644,410.63623 C 131.10884,401.3204 153.59018,396.4835 212.19135,387.37749 C 260.54962,355.89042 274.23964,354.24475 312.25653,339.10462 C 326.24201,333.61906 350.47041,327.69468 364.25892,326.81699 C 400.89696,324.18392 422.95858,325.50046 458.8087,328.57237 C 472.20326,328.57237 499.78028,337.34925 499.78028,337.34925 L 590.39049,381.23366 L 653.42368,385.62211 L 655.78742,408.00316 L 656.9693,444.86607 L 668.39406,452.32643 C 668.39406,452.32643 670.56083,466.15002 666.42428,476.46286 C 662.28772,486.77571 659.43153,489.95732 651.84785,493.57779 C 626.93004,502.02553 575.02615,512.00924 575.02615,512.00924 C 575.02615,512.00924 577.2914,483.04552 575.4201,461.98099 C 571.30793,449.32111 566.35909,442.67186 559.66181,434.77266 C 549.02497,425.55694 540.94883,422.70444 529.72103,421.60733 C 515.95893,422.23544 505.29568,425.11809 505.29568,425.11809 C 505.29568,425.11809 490.52227,435.2115 483.62802,444.86607 C 477.52168,457.59255 476.14283,465.49176 476.14283,465.49176 L 474.567,490.06703 L 477.71866,507.6208 L 478.50657,514.6423 L 186.19016,513.76461 L 192.49347,488.31165 L 192.49347,463.73637 L 178.31101,434.77266 L 155.46147,419.85196 L 128.67237,418.97427 L 109.76241,430.38422 L 93.216195,456.71487 L 92.428278,481.29014 C 92.428278,481.29014 93.807132,494.01663 94.792028,498.84392 C 81.594452,502.35467 65.558356,500.9262 47.517131,498.84392 z "
       style="fill:#446e9e;fill-opacity:1;fill-rule:evenodd;stroke:black;stroke-width:1.08733416px;stroke-linecap:butt;stroke-linejoin:miter;stroke-opacity:1" />
    <path
       transform="matrix(-0.835378,0.678986,-0.644122,-0.98336,557.2929,717.0608)"
       d="M 251.93152 384.88464 A 50.98082 49.595085 0 1 1  149.96988,384.88464 A 50.98082 49.595085 0 1 1  251.93152 384.88464 z"
       sodipodi:ry="49.595085"
       sodipodi:rx="50.98082"
       sodipodi:cy="384.88464"
       sodipodi:cx="200.9507"
       id="path2083"
       style="fill:#000606;fill-opacity:1;fill-rule:evenodd;stroke:none;stroke-width:7.30000019;stroke-miterlimit:4;stroke-dasharray:none;stroke-opacity:1"
       sodipodi:type="arc" />
    <path
       sodipodi:type="arc"
       style="fill:#000606;fill-opacity:1;fill-rule:evenodd;stroke:none;stroke-width:7.30000019;stroke-miterlimit:4;stroke-dasharray:none;stroke-opacity:1"
       id="path2811"
       sodipodi:cx="200.9507"
       sodipodi:cy="384.88464"
       sodipodi:rx="50.98082"
       sodipodi:ry="49.595085"
       d="M 251.93152 384.88464 A 50.98082 49.595085 0 1 1  149.96988,384.88464 A 50.98082 49.595085 0 1 1  251.93152 384.88464 z"
       transform="matrix(-0.835378,0.678986,-0.644122,-0.98336,942.5833,720.5715)" />
    <path
       id="path3539"
       d="M 72.452937,422.10474 L 214.60873,402.00326 L 309.23692,346.7569 L 345.61106,338.67516 L 396.08433,336.13027 L 448.02486,340.63604 L 493.54115,352.91915 L 538.06651,378.35056 L 570.88324,396.53525 L 624.27751,408.96922 L 630.49865,414.35523 L 633.52798,422.3136 L 616.23703,419.34908 L 398.73694,419.57378 L 220.5049,428.4507 L 173.95709,431.94856 L 69.058013,437.84046 L 72.452937,422.10474 z "
       style="fill:url(#radialGradient2452);fill-opacity:1;fill-rule:evenodd;stroke:none;stroke-width:1px;stroke-linecap:butt;stroke-linejoin:miter;stroke-opacity:1" />
    <path
       sodipodi:nodetypes="ccccssccc"
       id="path5001"
       d="M 270.37525,409.97216 C 270.37525,409.97216 269.56174,397.8351 271.8077,388.59731 C 286.03216,373.77396 307.77321,364.02205 307.77321,364.02205 C 307.77321,364.02205 319.38337,358.00031 340.86564,349.97903 C 377.3907,342.57838 387.15563,344.05464 420.44503,345.59059 C 453.73444,347.12655 461.23023,349.6246 474.02325,356.12284 C 498.85993,368.73869 522.87398,387.71962 522.87398,387.71962 L 526.53498,399.28931 L 270.37525,409.97216 z "
       style="fill:#876d6d;fill-opacity:1;fill-rule:evenodd;stroke:black;stroke-width:3.04453564;stroke-linecap:butt;stroke-linejoin:miter;stroke-miterlimit:4;stroke-dasharray:none;stroke-opacity:1" />
    <path
       style="fill:url(#radialGradient2454);fill-opacity:1;fill-rule:evenodd;stroke:none;stroke-width:2.79999995;stroke-linecap:butt;stroke-linejoin:miter;stroke-miterlimit:4;stroke-dasharray:none;stroke-opacity:1"
       d="M 270.37525,409.97216 C 270.37525,409.97216 269.56174,397.8351 271.8077,388.59731 C 286.03216,373.77396 307.77321,364.02205 307.77321,364.02205 C 307.77321,364.02205 319.38337,358.00031 340.86564,349.97903 C 377.3907,342.57838 387.15563,344.05464 420.44503,345.59059 C 453.73444,347.12655 461.23023,349.6246 474.02325,356.12284 C 498.85993,368.73869 522.87398,387.71962 522.87398,387.71962 L 526.53498,399.28931 L 270.37525,409.97216 z "
       id="path7186"
       sodipodi:nodetypes="ccccssccc" />
    <rect
       ry="8.5628633"
       rx="0"
       y="345.34442"
       x="388.79559"
       height="58.338226"
       width="2.2285597"
       id="rect6456"
       style="fill:black;fill-opacity:1;fill-rule:evenodd;stroke:none;stroke-width:2.79999995;stroke-miterlimit:4;stroke-dasharray:none;stroke-opacity:1" />
    <rect
       style="fill:black;fill-opacity:1;fill-rule:evenodd;stroke:none;stroke-width:2.79999995;stroke-miterlimit:4;stroke-dasharray:none;stroke-opacity:1"
       id="rect7184"
       width="2.2285597"
       height="58.338226"
       x="392.73517"
       y="345.78326"
       rx="0"
       ry="8.5628633" />
    <path
       sodipodi:nodetypes="cccccc"
       id="path7922"
       d="M 268.1333,411.07506 L 412.32172,403.17587 C 412.32172,403.17587 428.86794,422.70443 412.32172,480.41245 C 356.37977,484.58147 282.90671,486.55627 232.67714,483.04552 C 214.75208,397.03206 274.43663,385.62211 274.43663,385.62211 L 268.1333,411.07506 z "
       style="fill:none;fill-opacity:0.75;fill-rule:evenodd;stroke:black;stroke-width:1.08733416px;stroke-linecap:butt;stroke-linejoin:miter;stroke-opacity:1" />
    <g
       transform="matrix(1.030226,0,0,1.147608,120.0525,-188.4971)"
       id="g11586">
      <path
         sodipodi:type="arc"
         style="fill:#d8c080;fill-opacity:1;fill-rule:evenodd;stroke:none;stroke-width:2.79999995;stroke-miterlimit:4;stroke-dasharray:none;stroke-opacity:1"
         id="path7924"
         sodipodi:cx="220.26186"
         sodipodi:cy="501.32516"
         sodipodi:rx="32.886318"
         sodipodi:ry="34.033516"
         d="M 253.14817 501.32516 A 32.886318 34.033516 0 1 1  187.37554,501.32516 A 32.886318 34.033516 0 1 1  253.14817 501.32516 z"
         transform="matrix(1.151163,0,0,1.073034,141.6772,44.25142)" />
      <path
         sodipodi:type="arc"
         style="fill:none;fill-opacity:1;fill-rule:evenodd;stroke:black;stroke-width:0.80000001;stroke-miterlimit:4;stroke-dasharray:none;stroke-opacity:1"
         id="path10114"
         sodipodi:cx="-70.979202"
         sodipodi:cy="441.94104"
         sodipodi:rx="9.8694887"
         sodipodi:ry="8.7879009"
         d="M -61.109714 441.94104 A 9.8694887 8.7879009 0 1 1  -80.848691,441.94104 A 9.8694887 8.7879009 0 1 1  -61.109714 441.94104 z"
         transform="matrix(1.05266,0,0,1.103004,469.3613,93.59759)" />
      <path
         transform="matrix(0.776448,0,0,0.793681,449.6208,230.1647)"
         d="M -61.109714 441.94104 A 9.8694887 8.7879009 0 1 1  -80.848691,441.94104 A 9.8694887 8.7879009 0 1 1  -61.109714 441.94104 z"
         sodipodi:ry="8.7879009"
         sodipodi:rx="9.8694887"
         sodipodi:cy="441.94104"
         sodipodi:cx="-70.979202"
         id="path10842"
         style="fill:none;fill-opacity:1;fill-rule:evenodd;stroke:black;stroke-width:0.80000001;stroke-miterlimit:4;stroke-dasharray:none;stroke-opacity:1"
         sodipodi:type="arc" />
      <path
         sodipodi:type="arc"
         style="fill:none;fill-opacity:1;fill-rule:evenodd;stroke:black;stroke-width:0.80000001;stroke-miterlimit:4;stroke-dasharray:none;stroke-opacity:1"
         id="path10844"
         sodipodi:cx="-70.979202"
         sodipodi:cy="441.94104"
         sodipodi:rx="9.8694887"
         sodipodi:ry="8.7879009"
         d="M -61.109714 441.94104 A 9.8694887 8.7879009 0 1 1  -80.848691,441.94104 A 9.8694887 8.7879009 0 1 1  -61.109714 441.94104 z"
         transform="matrix(0.51326,0,0,0.558132,430.6696,334.534)" />
      <path
         sodipodi:type="arc"
         style="fill:black;fill-opacity:1;fill-rule:evenodd;stroke:black;stroke-width:0.80000001;stroke-miterlimit:4;stroke-dasharray:none;stroke-opacity:1"
         id="path10846"
         sodipodi:cx="-45.56189"
         sodipodi:cy="429.50278"
         sodipodi:rx="2.0279772"
         sodipodi:ry="2.2983742"
         d="M -43.533912 429.50278 A 2.0279772 2.2983742 0 1 1  -47.589867,429.50278 A 2.0279772 2.2983742 0 1 1  -43.533912 429.50278 z"
         transform="translate(410.733,155.2079)" />
      <path
         d="M -43.533912 429.50278 A 2.0279772 2.2983742 0 1 1  -47.589867,429.50278 A 2.0279772 2.2983742 0 1 1  -43.533912 429.50278 z"
         sodipodi:ry="2.2983742"
         sodipodi:rx="2.0279772"
         sodipodi:cy="429.50278"
         sodipodi:cx="-45.56189"
         id="path11574"
         style="fill:black;fill-opacity:1;fill-rule:evenodd;stroke:black;stroke-width:0.80000001;stroke-miterlimit:4;stroke-dasharray:none;stroke-opacity:1"
         sodipodi:type="arc"
         transform="translate(418.5745,132.2241)" />
      <path
         sodipodi:type="arc"
         style="fill:black;fill-opacity:1;fill-rule:evenodd;stroke:black;stroke-width:0.80000001;stroke-miterlimit:4;stroke-dasharray:none;stroke-opacity:1"
         id="path11576"
         sodipodi:cx="-45.56189"
         sodipodi:cy="429.50278"
         sodipodi:rx="2.0279772"
         sodipodi:ry="2.2983742"
         d="M -43.533912 429.50278 A 2.0279772 2.2983742 0 1 1  -47.589867,429.50278 A 2.0279772 2.2983742 0 1 1  -43.533912 429.50278 z"
         transform="translate(425.064,176.5692)" />
      <path
         d="M -43.533912 429.50278 A 2.0279772 2.2983742 0 1 1  -47.589867,429.50278 A 2.0279772 2.2983742 0 1 1  -43.533912 429.50278 z"
         sodipodi:ry="2.2983742"
         sodipodi:rx="2.0279772"
         sodipodi:cy="429.50278"
         sodipodi:cx="-45.56189"
         id="path11578"
         style="fill:black;fill-opacity:1;fill-rule:evenodd;stroke:black;stroke-width:0.80000001;stroke-miterlimit:4;stroke-dasharray:none;stroke-opacity:1"
         sodipodi:type="arc"
         transform="translate(451.2925,180.0844)" />
      <path
         sodipodi:type="arc"
         style="fill:black;fill-opacity:1;fill-rule:evenodd;stroke:black;stroke-width:0.80000001;stroke-miterlimit:4;stroke-dasharray:none;stroke-opacity:1"
         id="path11580"
         sodipodi:cx="-45.56189"
         sodipodi:cy="429.50278"
         sodipodi:rx="2.0279772"
         sodipodi:ry="2.2983742"
         d="M -43.533912 429.50278 A 2.0279772 2.2983742 0 1 1  -47.589867,429.50278 A 2.0279772 2.2983742 0 1 1  -43.533912 429.50278 z"
         transform="translate(442.9102,124.653)" />
      <path
         d="M -43.533912 429.50278 A 2.0279772 2.2983742 0 1 1  -47.589867,429.50278 A 2.0279772 2.2983742 0 1 1  -43.533912 429.50278 z"
         sodipodi:ry="2.2983742"
         sodipodi:rx="2.0279772"
         sodipodi:cy="429.50278"
         sodipodi:cx="-45.56189"
         id="path11582"
         style="fill:black;fill-opacity:1;fill-rule:evenodd;stroke:black;stroke-width:0.80000001;stroke-miterlimit:4;stroke-dasharray:none;stroke-opacity:1"
         sodipodi:type="arc"
         transform="translate(470.2203,161.427)" />
      <path
         transform="translate(466.7052,137.9024)"
         d="M -43.533912 429.50278 A 2.0279772 2.2983742 0 1 1  -47.589867,429.50278 A 2.0279772 2.2983742 0 1 1  -43.533912 429.50278 z"
         sodipodi:ry="2.2983742"
         sodipodi:rx="2.0279772"
         sodipodi:cy="429.50278"
         sodipodi:cx="-45.56189"
         id="path11584"
         style="fill:black;fill-opacity:1;fill-rule:evenodd;stroke:black;stroke-width:0.80000001;stroke-miterlimit:4;stroke-dasharray:none;stroke-opacity:1"
         sodipodi:type="arc" />
    </g>
    <g
       id="g12325"
       transform="matrix(1.030226,0,0,1.147608,-265.728,-191.4392)">
      <path
         transform="matrix(1.151163,0,0,1.073034,141.6772,44.25142)"
         d="M 253.14817 501.32516 A 32.886318 34.033516 0 1 1  187.37554,501.32516 A 32.886318 34.033516 0 1 1  253.14817 501.32516 z"
         sodipodi:ry="34.033516"
         sodipodi:rx="32.886318"
         sodipodi:cy="501.32516"
         sodipodi:cx="220.26186"
         id="path12327"
         style="fill:#d8c080;fill-opacity:1;fill-rule:evenodd;stroke:none;stroke-width:2.79999995;stroke-miterlimit:4;stroke-dasharray:none;stroke-opacity:1"
         sodipodi:type="arc" />
      <path
         transform="matrix(1.05266,0,0,1.103004,469.3613,93.59759)"
         d="M -61.109714 441.94104 A 9.8694887 8.7879009 0 1 1  -80.848691,441.94104 A 9.8694887 8.7879009 0 1 1  -61.109714 441.94104 z"
         sodipodi:ry="8.7879009"
         sodipodi:rx="9.8694887"
         sodipodi:cy="441.94104"
         sodipodi:cx="-70.979202"
         id="path12329"
         style="fill:none;fill-opacity:1;fill-rule:evenodd;stroke:black;stroke-width:0.80000001;stroke-miterlimit:4;stroke-dasharray:none;stroke-opacity:1"
         sodipodi:type="arc" />
      <path
         sodipodi:type="arc"
         style="fill:none;fill-opacity:1;fill-rule:evenodd;stroke:black;stroke-width:0.80000001;stroke-miterlimit:4;stroke-dasharray:none;stroke-opacity:1"
         id="path12331"
         sodipodi:cx="-70.979202"
         sodipodi:cy="441.94104"
         sodipodi:rx="9.8694887"
         sodipodi:ry="8.7879009"
         d="M -61.109714 441.94104 A 9.8694887 8.7879009 0 1 1  -80.848691,441.94104 A 9.8694887 8.7879009 0 1 1  -61.109714 441.94104 z"
         transform="matrix(0.776448,0,0,0.793681,449.6208,230.1647)" />
      <path
         transform="matrix(0.51326,0,0,0.558132,430.6696,334.534)"
         d="M -61.109714 441.94104 A 9.8694887 8.7879009 0 1 1  -80.848691,441.94104 A 9.8694887 8.7879009 0 1 1  -61.109714 441.94104 z"
         sodipodi:ry="8.7879009"
         sodipodi:rx="9.8694887"
         sodipodi:cy="441.94104"
         sodipodi:cx="-70.979202"
         id="path12333"
         style="fill:none;fill-opacity:1;fill-rule:evenodd;stroke:black;stroke-width:0.80000001;stroke-miterlimit:4;stroke-dasharray:none;stroke-opacity:1"
         sodipodi:type="arc" />
      <path
         transform="translate(410.733,155.2079)"
         d="M -43.533912 429.50278 A 2.0279772 2.2983742 0 1 1  -47.589867,429.50278 A 2.0279772 2.2983742 0 1 1  -43.533912 429.50278 z"
         sodipodi:ry="2.2983742"
         sodipodi:rx="2.0279772"
         sodipodi:cy="429.50278"
         sodipodi:cx="-45.56189"
         id="path12335"
         style="fill:black;fill-opacity:1;fill-rule:evenodd;stroke:black;stroke-width:0.80000001;stroke-miterlimit:4;stroke-dasharray:none;stroke-opacity:1"
         sodipodi:type="arc" />
      <path
         transform="translate(418.5745,132.2241)"
         sodipodi:type="arc"
         style="fill:black;fill-opacity:1;fill-rule:evenodd;stroke:black;stroke-width:0.80000001;stroke-miterlimit:4;stroke-dasharray:none;stroke-opacity:1"
         id="path12337"
         sodipodi:cx="-45.56189"
         sodipodi:cy="429.50278"
         sodipodi:rx="2.0279772"
         sodipodi:ry="2.2983742"
         d="M -43.533912 429.50278 A 2.0279772 2.2983742 0 1 1  -47.589867,429.50278 A 2.0279772 2.2983742 0 1 1  -43.533912 429.50278 z" />
      <path
         transform="translate(425.064,176.5692)"
         d="M -43.533912 429.50278 A 2.0279772 2.2983742 0 1 1  -47.589867,429.50278 A 2.0279772 2.2983742 0 1 1  -43.533912 429.50278 z"
         sodipodi:ry="2.2983742"
         sodipodi:rx="2.0279772"
         sodipodi:cy="429.50278"
         sodipodi:cx="-45.56189"
         id="path12339"
         style="fill:black;fill-opacity:1;fill-rule:evenodd;stroke:black;stroke-width:0.80000001;stroke-miterlimit:4;stroke-dasharray:none;stroke-opacity:1"
         sodipodi:type="arc" />
      <path
         transform="translate(451.2925,180.0844)"
         sodipodi:type="arc"
         style="fill:black;fill-opacity:1;fill-rule:evenodd;stroke:black;stroke-width:0.80000001;stroke-miterlimit:4;stroke-dasharray:none;stroke-opacity:1"
         id="path12341"
         sodipodi:cx="-45.56189"
         sodipodi:cy="429.50278"
         sodipodi:rx="2.0279772"
         sodipodi:ry="2.2983742"
         d="M -43.533912 429.50278 A 2.0279772 2.2983742 0 1 1  -47.589867,429.50278 A 2.0279772 2.2983742 0 1 1  -43.533912 429.50278 z" />
      <path
         transform="translate(442.9102,124.653)"
         d="M -43.533912 429.50278 A 2.0279772 2.2983742 0 1 1  -47.589867,429.50278 A 2.0279772 2.2983742 0 1 1  -43.533912 429.50278 z"
         sodipodi:ry="2.2983742"
         sodipodi:rx="2.0279772"
         sodipodi:cy="429.50278"
         sodipodi:cx="-45.56189"
         id="path12343"
         style="fill:black;fill-opacity:1;fill-rule:evenodd;stroke:black;stroke-width:0.80000001;stroke-miterlimit:4;stroke-dasharray:none;stroke-opacity:1"
         sodipodi:type="arc" />
      <path
         transform="translate(470.2203,161.427)"
         sodipodi:type="arc"
         style="fill:black;fill-opacity:1;fill-rule:evenodd;stroke:black;stroke-width:0.80000001;stroke-miterlimit:4;stroke-dasharray:none;stroke-opacity:1"
         id="path12345"
         sodipodi:cx="-45.56189"
         sodipodi:cy="429.50278"
         sodipodi:rx="2.0279772"
         sodipodi:ry="2.2983742"
         d="M -43.533912 429.50278 A 2.0279772 2.2983742 0 1 1  -47.589867,429.50278 A 2.0279772 2.2983742 0 1 1  -43.533912 429.50278 z" />
      <path
         sodipodi:type="arc"
         style="fill:black;fill-opacity:1;fill-rule:evenodd;stroke:black;stroke-width:0.80000001;stroke-miterlimit:4;stroke-dasharray:none;stroke-opacity:1"
         id="path12347"
         sodipodi:cx="-45.56189"
         sodipodi:cy="429.50278"
         sodipodi:rx="2.0279772"
         sodipodi:ry="2.2983742"
         d="M -43.533912 429.50278 A 2.0279772 2.2983742 0 1 1  -47.589867,429.50278 A 2.0279772 2.2983742 0 1 1  -43.533912 429.50278 z"
         transform="translate(466.7052,137.9024)" />
    </g>
    <path
       transform="matrix(1.030226,0,0,1.147608,75.10934,-264.0777)"
       d="M 320.15 612.15594 A 16.223818 3.2447636 0 1 1  287.70236,612.15594 A 16.223818 3.2447636 0 1 1  320.15 612.15594 z"
       sodipodi:ry="3.2447636"
       sodipodi:rx="16.223818"
       sodipodi:cy="612.15594"
       sodipodi:cx="303.92618"
       id="path12349"
       style="fill:black;fill-opacity:1;fill-rule:evenodd;stroke:black;stroke-width:0.80000001;stroke-miterlimit:4;stroke-dasharray:none;stroke-opacity:1"
       sodipodi:type="arc" />
    <g
       transform="matrix(1.011532,0.217628,-0.195368,1.126784,-36.58362,-125.7752)"
       id="g15269">
      <path
         style="fill:#cb3a3a;fill-opacity:1;fill-rule:evenodd;stroke:none;stroke-width:1px;stroke-linecap:butt;stroke-linejoin:miter;stroke-opacity:1"
         d="M 747.02217,347.87349 C 732.09269,349.75501 720.43378,350.33424 708.53302,343.54714 C 707.72183,334.08325 727.27194,316.2019 738.04142,311.92991 C 744.22212,316.83548 750.47968,338.34399 747.02217,347.87349 z "
         id="path12351"
         sodipodi:nodetypes="cccc" />
      <path
         sodipodi:nodetypes="cccc"
         id="path13805"
         d="M 746.48138,348.14389 C 731.55189,350.02541 719.89299,350.60464 707.99222,343.81754 C 707.18103,334.35365 726.73114,316.4723 737.50063,312.20031 C 743.68133,317.10588 749.93889,338.61439 746.48138,348.14389 z "
         style="fill:url(#radialGradient2456);fill-opacity:1;fill-rule:evenodd;stroke:none;stroke-width:1px;stroke-linecap:butt;stroke-linejoin:miter;stroke-opacity:1" />
    </g>
    <path
       transform="matrix(0.843479,0.658929,-0.591531,0.939583,166.2168,18.60946)"
       d="M 145.31164 356.3959 A 9.9423752 16.06076 0 1 1  125.42689,356.3959 A 9.9423752 16.06076 0 1 1  145.31164 356.3959 z"
       sodipodi:ry="16.06076"
       sodipodi:rx="9.9423752"
       sodipodi:cy="356.3959"
       sodipodi:cx="135.36926"
       id="path16009"
       style="fill:#928383;fill-opacity:1;fill-rule:evenodd;stroke:none;stroke-width:0.80000001;stroke-miterlimit:4;stroke-dasharray:none;stroke-opacity:1"
       sodipodi:type="arc" />
    <path
       sodipodi:type="arc"
       style="fill:url(#radialGradient2458);fill-opacity:1;fill-rule:evenodd;stroke:none;stroke-width:0.80000001;stroke-miterlimit:4;stroke-dasharray:none;stroke-opacity:1"
       id="path16011"
       sodipodi:cx="135.36926"
       sodipodi:cy="356.3959"
       sodipodi:rx="9.9423752"
       sodipodi:ry="16.06076"
       d="M 145.31164 356.3959 A 9.9423752 16.06076 0 1 1  125.42689,356.3959 A 9.9423752 16.06076 0 1 1  145.31164 356.3959 z"
       transform="matrix(0.843479,0.658929,-0.591531,0.939583,166.2168,18.60946)" />
  </g>
</svg>
