<?xml version="1.0" encoding="UTF-8" standalone="no"?>
<!-- Created with Inkscape (http://www.inkscape.org/) -->
<svg
   xmlns:dc="http://purl.org/dc/elements/1.1/"
   xmlns:cc="http://web.resource.org/cc/"
   xmlns:rdf="http://www.w3.org/1999/02/22-rdf-syntax-ns#"
   xmlns:svg="http://www.w3.org/2000/svg"
   xmlns="http://www.w3.org/2000/svg"
   xmlns:xlink="http://www.w3.org/1999/xlink"
   xmlns:sodipodi="http://inkscape.sourceforge.net/DTD/sodipodi-0.dtd"
   xmlns:inkscape="http://www.inkscape.org/namespaces/inkscape"
   width="612pt"
   height="300pt"
   id="svg2"
   sodipodi:version="0.32"
   inkscape:version="0.43"
   sodipodi:docbase="S:\Groups\Security\STE\jaf\Stuff\Explorer"
   sodipodi:docname="sav_side.svg"
   version="1.0">
  <defs
     id="defs4">
    <linearGradient
       id="linearGradient9619">
      <stop
         style="stop-color:#bbbbbb;stop-opacity:1;"
         offset="0"
         id="stop9621" />
      <stop
         style="stop-color:#ffffff;stop-opacity:1;"
         offset="1"
         id="stop9623" />
    </linearGradient>
    <linearGradient
       inkscape:collect="always"
       id="linearGradient5196">
      <stop
         style="stop-color:#c9c9c9;stop-opacity:1;"
         offset="0"
         id="stop5198" />
      <stop
         style="stop-color:#c9c9c9;stop-opacity:0;"
         offset="1"
         id="stop5200" />
    </linearGradient>
    <linearGradient
       inkscape:collect="always"
       xlink:href="#linearGradient5196"
       id="linearGradient5202"
       x1="-776.40326"
       y1="619.61285"
       x2="-774.98901"
       y2="430.10822"
       gradientUnits="userSpaceOnUse" />
    <linearGradient
       inkscape:collect="always"
       xlink:href="#linearGradient9619"
       id="linearGradient9625"
       x1="-1027.219"
       y1="350.91223"
       x2="-490.02499"
       y2="295.75793"
       gradientUnits="userSpaceOnUse" />
    <linearGradient
       inkscape:collect="always"
       xlink:href="#linearGradient9619"
       id="linearGradient4073"
       gradientUnits="userSpaceOnUse"
       x1="-1027.219"
       y1="350.91223"
       x2="-490.02499"
       y2="295.75793" />
    <linearGradient
       inkscape:collect="always"
       xlink:href="#linearGradient5196"
       id="linearGradient4075"
       gradientUnits="userSpaceOnUse"
       x1="-776.40326"
       y1="619.61285"
       x2="-774.98901"
       y2="430.10822" />
    <linearGradient
       inkscape:collect="always"
       xlink:href="#linearGradient5196"
       id="linearGradient6733"
       gradientUnits="userSpaceOnUse"
       x1="-776.40326"
       y1="619.61285"
       x2="-774.98901"
       y2="430.10822"
       gradientTransform="matrix(0.467111,0,0,0.487697,583.26,486.2726)" />
    <linearGradient
       inkscape:collect="always"
       xlink:href="#linearGradient9619"
       id="linearGradient6736"
       gradientUnits="userSpaceOnUse"
       x1="-1027.219"
       y1="350.91223"
       x2="-490.02499"
       y2="295.75793"
       gradientTransform="matrix(0.467111,0,0,0.487697,583.26,486.2726)" />
    <linearGradient
       inkscape:collect="always"
       xlink:href="#linearGradient9619"
       id="linearGradient7649"
       gradientUnits="userSpaceOnUse"
       gradientTransform="matrix(0.467111,0,0,0.487697,583.26,486.2726)"
       x1="-1027.219"
       y1="350.91223"
       x2="-490.02499"
       y2="295.75793" />
    <linearGradient
       inkscape:collect="always"
       xlink:href="#linearGradient5196"
       id="linearGradient7651"
       gradientUnits="userSpaceOnUse"
       gradientTransform="matrix(0.467111,0,0,0.487697,583.26,486.2726)"
       x1="-776.40326"
       y1="619.61285"
       x2="-774.98901"
       y2="430.10822" />
    <linearGradient
       inkscape:collect="always"
       xlink:href="#linearGradient5196"
       id="linearGradient1360"
       gradientUnits="userSpaceOnUse"
       gradientTransform="matrix(0.441304,0,0,0.460753,553.6492,508.81)"
       x1="-776.40326"
       y1="619.61285"
       x2="-774.98901"
       y2="430.10822" />
    <linearGradient
       inkscape:collect="always"
       xlink:href="#linearGradient9619"
       id="linearGradient1363"
       gradientUnits="userSpaceOnUse"
       gradientTransform="matrix(0.441304,0,0,0.460753,553.6492,508.81)"
       x1="-1027.219"
       y1="350.91223"
       x2="-490.02499"
       y2="295.75793" />
  </defs>
  <sodipodi:namedview
     id="base"
     pagecolor="#ffffff"
     bordercolor="#666666"
     borderopacity="1.0"
     inkscape:pageopacity="0.0"
     inkscape:pageshadow="2"
     inkscape:zoom="0.82886916"
     inkscape:cx="406.26354"
     inkscape:cy="451.12669"
     inkscape:document-units="px"
     inkscape:current-layer="layer1"
     inkscape:window-width="1280"
     inkscape:window-height="977"
     inkscape:window-x="-4"
     inkscape:window-y="-4"
     showguides="true"
     inkscape:guide-bbox="true" />
  <metadata
     id="metadata7">
    <rdf:RDF>
      <cc:Work
         rdf:about="">
        <dc:format>image/svg+xml</dc:format>
        <dc:type
           rdf:resource="http://purl.org/dc/dcmitype/StillImage" />
      </cc:Work>
    </rdf:RDF>
  </metadata>
  <g
     inkscape:label="Layer 1"
     inkscape:groupmode="layer"
     id="layer1">
    <path
       style="opacity:1;fill:#0a0a0a;fill-opacity:1;stroke:none;stroke-width:1;stroke-miterlimit:4;stroke-dasharray:none;stroke-opacity:1"
       d="M 310.40991,-56.082528 C 310.3472,-56.004246 310.27967,-55.934474 310.21955,-55.854096 C 310.27791,-55.932422 310.34912,-56.005873 310.40991,-56.082528 z "
       id="path12075" />
    <path
       style="opacity:1;fill:#0a0a0a;fill-opacity:1;stroke:none;stroke-width:1;stroke-miterlimit:4;stroke-dasharray:none;stroke-opacity:1"
       d="M 310.21955,-55.816024 C 310.2029,-55.79365 310.15984,-55.762412 310.1434,-55.73988 C 310.16381,-55.768129 310.19882,-55.78797 310.21955,-55.816024 z "
       id="path12073" />
    <path
       style="opacity:1;fill:#0a0a0a;fill-opacity:1;stroke:none;stroke-width:1;stroke-miterlimit:4;stroke-dasharray:none;stroke-opacity:1"
       d="M 309.15353,-54.064711 C 309.14471,-54.044549 309.16221,-54.008805 309.15353,-53.988567 C 309.16426,-54.013218 309.1807,-54.040181 309.1916,-54.064711 C 309.1879,-54.056323 309.15721,-54.073111 309.15353,-54.064711 z "
       id="path12067" />
    <path
       style="opacity:1;fill:#0a0a0a;fill-opacity:1;stroke:none;stroke-width:1;stroke-miterlimit:4;stroke-dasharray:none;stroke-opacity:1"
       d="M 309.11546,-53.912423 C 309.08282,-53.834505 309.06981,-53.762995 309.03931,-53.68399 C 309.06923,-53.759338 309.08382,-53.838113 309.11546,-53.912423 z "
       id="path12065" />
    <path
       style="opacity:1;fill:#0a0a0a;fill-opacity:1;stroke:none;stroke-width:1;stroke-miterlimit:4;stroke-dasharray:none;stroke-opacity:1"
       d="M 308.96317,-53.531702 C 308.94287,-53.476295 308.94433,-53.435322 308.9251,-53.379414 C 308.94341,-53.430516 308.94403,-53.481028 308.96317,-53.531702 z "
       id="path12063" />
    <path
       style="opacity:1;fill:#0a0a0a;fill-opacity:1;stroke:none;stroke-width:1;stroke-miterlimit:4;stroke-dasharray:none;stroke-opacity:1"
       d="M 308.88702,-53.30327 C 308.87177,-53.25767 308.8635,-53.196902 308.84895,-53.150982 C 308.86595,-53.202698 308.86915,-53.25196 308.88702,-53.30327 z "
       id="path12061" />
    <path
       style="opacity:1;fill:#0a0a0a;fill-opacity:1;stroke:none;stroke-width:1;stroke-miterlimit:4;stroke-dasharray:none;stroke-opacity:1"
       d="M 308.81088,-53.074838 C 308.79236,-53.014567 308.79008,-52.983348 308.77281,-52.92255 C 308.78841,-52.974846 308.79434,-53.022926 308.81088,-53.074838 z "
       id="path12059" />
    <path
       style="opacity:1;fill:#0a0a0a;fill-opacity:1;stroke:none;stroke-width:1;stroke-miterlimit:4;stroke-dasharray:none;stroke-opacity:1"
       d="M 308.62052,-52.35147 C 308.60722,-52.290424 308.59451,-52.260679 308.58245,-52.199182 C 308.59349,-52.253015 308.60841,-52.297952 308.62052,-52.35147 z "
       id="path12055" />
    <path
       style="opacity:1;fill:#0a0a0a;fill-opacity:1;stroke:none;stroke-width:1;stroke-miterlimit:4;stroke-dasharray:none;stroke-opacity:1"
       d="M 309.34389,-46.488378 C 309.35752,-46.460445 309.36805,-46.440005 309.38196,-46.412234 C 309.36944,-46.436775 309.35621,-46.463711 309.34389,-46.488378 z "
       id="path12043" />
    <path
       style="opacity:1;fill:#0a0a0a;fill-opacity:1;stroke:none;stroke-width:1;stroke-miterlimit:4;stroke-dasharray:none;stroke-opacity:1"
       d="M 309.49618,-46.183802 C 309.51078,-46.156448 309.51937,-46.134843 309.53425,-46.107658 C 309.52093,-46.131685 309.5093,-46.159644 309.49618,-46.183802 z "
       id="path12041" />
    <path
       style="opacity:1;fill:#0a0a0a;fill-opacity:1;stroke:none;stroke-width:1;stroke-miterlimit:4;stroke-dasharray:none;stroke-opacity:1"
       d="M 309.61039,-45.993442 C 309.65289,-45.91831 309.68004,-45.838786 309.72461,-45.765009 C 309.68196,-45.835079 309.65145,-45.922155 309.61039,-45.993442 z "
       id="path12039" />
    <path
       style="fill:url(#linearGradient1363);fill-opacity:1;fill-rule:evenodd;stroke:#000000;stroke-width:0.45092353px;stroke-linecap:butt;stroke-linejoin:miter;stroke-opacity:1;display:none"
       d="M 82.143025,696.88368 L 107.41898,644.10385 L 117.40455,631.72341 L 142.68053,627.48799 L 192.92043,624.55577 L 258.45074,625.85898 L 301.20146,631.39761 L 309.31474,634.65562 L 329.90998,671.47117 L 343.64014,702.0965 L 304.634,694.92888 L 287.78335,693.62567 L 268.12426,692.32246 L 242.84829,691.01926 L 211.33133,690.69346 L 178.56617,691.67086 L 149.85765,692.32246 L 125.82988,694.60307 L 83.079163,701.7707"
       id="path8734" />
    <path
       style="fill:url(#linearGradient1360);fill-opacity:1;fill-rule:evenodd;stroke:#000000;stroke-width:0.45092353px;stroke-linecap:butt;stroke-linejoin:miter;stroke-opacity:1;display:none"
       d="M 121.14915,717.40916 L 136.1275,783.22104 L 139.87209,791.04027 L 147.36127,794.29829 L 174.82158,794.29829 L 212.26747,794.94989 L 277.17368,793.64668 L 282.16647,791.69188 L 287.15926,787.13066 L 289.65565,775.40181 L 302.13761,716.10596 L 279.04598,715.45436 L 272.805,738.91205 L 267.18812,749.98931 L 154.85044,748.6861 L 149.85765,733.69923 L 145.48897,715.45436 L 121.14915,717.40916 z "
       id="path5172" />
    <g
       id="g7636"
       transform="matrix(-1.152569,0,0,1.152569,829.9623,-25.85195)"
       inkscape:export-xdpi="300"
       inkscape:export-ydpi="300"
       inkscape:export-filename="C:\Documents and Settings\064557\My Documents\Explorer\g7637.png">
      <path
         sodipodi:nodetypes="ccssssssscssssccccssccssccsssssssssssssssssssssssssssssssssccsssccccccsssssssssssssssssssssssssssssssssssssssssssssssssssssssccsssccccsscccccssscccsscccccsssssscccssssssssssssssssssssssssssscssssscccccccssccsssssssccccssssccssscscccssssccccccsssccsscccccssscccssssssccccsccssssscscccccccssccssssscccsssssssssssssssssssssssssssccccsssssssccsssssssssssssscccscssccscccccssssssssscsssccsscscccccccssssssccccccccccccccccccccccscccccsssssssssccccsssssssssssscssssssssssssssscssssssssscccccccccccccccccsssssssccssccccscsssccccccccccccccccssssssscsssssssssssssssssssssssssssssssssssssssssssssssssssssssssssssssssssssssssssssssssssssccccccccsscssscccccccccsscccccccccccssccccccscsssssssssccccsssccccccccccccsccscccssssscccsssssssssssssccsc"
         style="fill:#000000"
         d="M 598.21076,65.276773 L 435.68126,65.314845 C 428.29967,65.263746 421.15241,67.562397 414.55128,72.053594 C 408.82096,75.952317 408.65331,75.977694 385.35003,77.002959 C 345.9092,78.738203 341.24576,80.937584 328.47042,89.109864 C 324.85666,91.421562 279.46794,123.10224 266.79373,130.41802 C 259.90503,134.3943 230.65808,136.92817 223.04896,138.14664 C 218.82179,138.82353 207.28994,140.00964 197.42649,140.81168 C 139.11077,145.55368 110.80496,156.64636 101.0281,165.33007 C 96.164995,169.64944 88.239568,179.56048 84.276409,205.80064 C 80.617827,210.11131 81.512002,209.43075 81.459079,223.04727 C 81.409104,235.90571 84.479428,237.64596 92.576112,239.68475 C 95.886283,240.51825 97.38687,240.00547 98.286917,240.78884 C 98.316485,240.81593 98.37282,240.87286 98.401133,240.90305 C 98.70828,241.24703 98.975259,241.78338 99.200646,242.65437 L 100.22859,249.08854 L 119.53111,249.46926 L 134.53149,249.69769 C 134.52974,249.87603 134.53149,250.05198 134.53149,250.2307 C 134.53149,279.58784 158.36094,303.41733 187.71812,303.41733 C 213.52032,303.41734 235.03715,285.01204 239.8768,260.62437 L 508.51305,260.62437 C 513.17227,285.23309 534.78879,303.87419 560.74788,303.87419 C 590.10505,303.8742 613.9726,280.04472 613.97258,250.68757 C 613.97254,250.51994 613.97414,250.35987 613.97258,250.19263 L 622.88144,249.50733 C 629.12907,249.0375 643.77016,248.255 655.39495,247.75602 C 675.88678,246.87643 676.60633,246.73124 680.33213,243.41581 C 682.44569,241.535 685.90912,239.85973 688.02268,239.64668 C 693.26512,239.11825 694.55177,237.77284 696.20817,231.19469 C 698.18398,223.34807 698.05546,214.9124 696.05588,213.26276 C 696.04926,213.25598 696.02444,213.2314 696.01781,213.22469 C 695.9596,213.18248 695.8887,213.14137 695.82745,213.11047 C 695.81451,213.10365 695.76433,213.07892 695.7513,213.0724 C 695.69732,213.05169 695.61239,213.02203 695.56094,212.99625 C 695.52973,212.97718 695.47269,212.93584 695.44673,212.92011 C 695.39533,212.88757 695.31351,212.84613 695.25637,212.80589 C 695.24964,212.79918 695.2248,212.77453 695.21829,212.76782 C 695.21057,212.75993 695.18404,212.73327 695.18022,212.72975 C 695.13093,212.68255 695.06585,212.61918 695.02793,212.57746 C 694.16997,211.59916 693.80963,209.41395 693.80963,205.38185 C 693.80961,198.2044 691.41376,196.1115 685.01499,192.36121 C 684.91145,192.30052 684.79507,192.20034 684.71041,192.09471 C 684.66542,192.03526 684.59509,191.93542 684.55813,191.86628 C 684.39128,191.53456 684.32732,191.08743 684.44391,190.68604 C 684.45284,190.6575 684.4712,190.59992 684.48198,190.57183 C 684.53906,190.43221 684.64074,190.27292 684.74849,190.15304 C 684.75591,190.14517 684.7789,190.12271 684.78656,190.11496 C 684.79552,190.1065 684.81497,190.0865 684.82463,190.07689 C 687.66212,187.57639 685.57196,161.17377 682.38802,151.09113 C 680.94192,146.51167 673.53928,127.36726 671.95628,123.94577 C 670.23909,120.23426 665.37099,112.08038 661.14383,105.78541 C 656.9166,99.490444 652.56841,92.819542 651.5116,90.975394 C 648.2037,85.202833 643.70424,79.699262 641.9936,79.363424 C 641.98389,79.363485 641.92704,79.363217 641.91745,79.363424 C 641.90777,79.363412 641.889,79.363278 641.87938,79.363424 C 641.87782,79.363388 641.84393,79.363047 641.84131,79.363424 C 640.23606,77.231391 632.42235,75.560571 627.37394,75.556221 C 623.21161,75.550325 620.78455,74.663557 617.77978,72.129739 C 611.92315,67.190986 606.45179,65.276772 598.21076,65.276773 z M 593.07103,67.637239 C 593.07764,67.65002 593.10304,67.699766 593.10911,67.713383 C 593.11558,67.726898 593.14051,67.776235 593.14718,67.789527 C 593.15705,67.799705 593.17954,67.822028 593.18525,67.827599 C 593.18948,67.827209 593.21986,67.827723 593.22332,67.827599 L 606.70082,72.700819 C 606.70085,72.700819 435.85396,74.466557 434.42488,73.919124 C 434.41189,73.255087 436.01336,69.366635 437.69908,67.941815 L 593.07103,67.637239 z M 428.10492,72.776963 C 428.1679,72.771103 428.23308,72.782519 428.29528,72.776963 C 428.30318,72.776256 428.32541,72.777219 428.33336,72.776963 C 428.36523,72.777268 428.41591,72.776585 428.44757,72.776963 C 428.45543,72.776744 428.47785,72.777633 428.48564,72.776963 C 428.49317,72.777073 428.51974,72.777085 428.52372,72.776963 C 428.55559,72.777243 428.60628,72.776598 428.63793,72.776963 C 428.64187,72.776866 428.66845,72.776853 428.676,72.776963 C 428.68341,72.777109 428.70981,72.777195 428.71408,72.776963 C 428.81811,72.773917 428.95525,72.779132 429.05672,72.776963 C 429.06087,72.77678 429.08733,72.776841 429.0948,72.776963 C 429.1379,72.775842 429.19906,72.777146 429.24708,72.776963 C 429.2509,72.776853 429.27748,72.776878 429.28516,72.776963 C 429.32616,72.775952 429.39692,72.776561 429.43744,72.776963 C 429.44148,72.776878 429.46801,72.776878 429.47552,72.776963 C 429.51648,72.776037 429.58726,72.776598 429.6278,72.776963 C 429.63184,72.77689 429.65836,72.77689 429.66588,72.776963 C 429.67336,72.777048 429.69986,72.777048 429.70395,72.776963 C 429.73681,72.777121 429.78571,72.776695 429.81816,72.776963 C 429.82618,72.776841 429.84833,72.777365 429.85624,72.776963 C 429.86427,72.776561 429.88616,72.777109 429.89431,72.776963 C 429.93545,72.777121 430.00667,72.777499 430.0466,72.776963 C 430.05453,72.77661 430.07654,72.777097 430.08467,72.776963 C 430.13414,72.777109 430.19077,72.778705 430.23696,72.776963 C 430.24384,72.776707 430.26826,72.777012 430.27503,72.776963 C 430.28171,72.777134 430.30652,72.776585 430.3131,72.776963 C 430.31634,72.777255 430.34327,72.777134 430.35117,72.776963 C 430.35455,72.776914 430.38526,72.777097 430.38925,72.776963 C 430.39263,72.776902 430.42331,72.777146 430.42732,72.776963 C 430.44044,72.78331 430.49067,72.808066 430.50346,72.815035 C 430.51642,72.820895 430.56676,72.846333 430.57961,72.853107 C 430.58632,72.859857 430.611,72.884344 430.61768,72.891179 C 430.62457,72.897198 430.64901,72.92294 430.65575,72.929251 C 430.66232,72.93583 430.68745,72.960489 430.69382,72.967323 C 430.71227,72.988497 430.74933,73.016652 430.76997,73.043467 C 430.77981,73.056905 430.80005,73.106904 430.80804,73.119611 C 430.99663,73.491657 431.00574,74.087981 430.80804,74.452132 C 430.80209,74.465229 430.77667,74.515241 430.76997,74.528277 C 430.75979,74.538413 430.7359,74.56167 430.73189,74.566349 C 430.72617,74.571575 430.70019,74.599328 430.69382,74.604421 C 430.66671,74.624218 430.60408,74.663581 430.57961,74.680565 C 430.57622,74.684025 430.54553,74.714397 430.54153,74.718637 C 430.52677,74.726483 430.48515,74.747316 430.46539,74.756709 C 428.38005,75.55694 418.74773,75.761579 417.36861,75.175501 C 417.36681,75.175781 417.33919,75.175586 417.33054,75.175501 C 417.32553,75.170433 417.2974,75.142497 417.29247,75.137429 C 417.28619,75.13738 417.25591,75.137246 417.25439,75.137429 C 417.24879,75.131886 417.21873,75.102257 417.21632,75.099357 C 417.21654,75.096226 417.21624,75.063807 417.21632,75.061285 C 417.21625,75.055096 417.21612,75.024785 417.21632,75.023213 C 417.21614,75.020118 417.21635,74.987663 417.21632,74.985141 C 417.22484,74.985104 417.25226,74.984897 417.25439,74.985141 C 417.25419,74.983618 417.25432,74.953343 417.25439,74.947069 C 417.25586,74.947325 417.28617,74.947142 417.29247,74.947069 C 417.29529,74.944108 417.32805,74.911482 417.33054,74.908997 C 417.35593,74.891465 417.41337,74.850762 417.44475,74.832853 C 418.70605,74.15076 424.13777,73.146463 428.10492,72.776963 z M 457.83918,79.744145 C 458.19974,79.740685 458.5467,79.746118 458.9052,79.744145 C 460.3392,79.736275 461.75454,79.744608 463.16926,79.744145 C 495.99079,79.733412 522.80411,80.484825 524.9221,81.34317 C 524.93852,81.350577 524.98551,81.37381 524.99824,81.381242 L 543.31089,162.62696 L 544.37691,185.31789 L 540.53163,186.34583 C 539.27121,187.07041 537.66401,187.87554 535.58227,188.78244 C 525.04689,193.37214 515.86919,201.52705 511.14002,210.55964 C 509.40483,213.87382 502.90499,225.01721 502.49767,243.41581 C 501.14706,243.72461 495.67209,243.79838 493.08374,243.79653 C 492.87531,244.65605 492.76867,248.69767 492.77916,249.13946 L 411.54359,249.13946 L 413.33298,147.28393 C 476.93229,146.29156 516.06585,144.41899 518.526,144.12395 C 523.11483,143.57364 526.18848,138.77509 524.50331,131.52211 C 524.50316,131.51284 514.2174,85.965017 513.84314,84.541221 C 513.84309,84.537383 513.843,84.507547 513.84314,84.503149 L 427.19119,83.132556 L 388.62423,84.921941 C 355.25812,86.326695 344.95294,90.101041 317.31531,111.00128 C 315.97731,112.01312 314.95631,112.83176 314.15533,113.47596 C 314.14901,113.47605 314.11866,113.47624 314.11726,113.47596 L 313.47004,113.78054 L 300.29711,123.9077 C 300.28477,123.92058 300.23487,123.96966 300.22097,123.98385 L 300.1829,123.98385 C 298.52628,124.85092 296.81047,126.51915 293.74873,129.58043 C 291.54272,131.78614 290.09329,133.26305 289.75116,133.73029 C 289.7445,133.74358 289.71896,133.79377 289.71309,133.80643 C 289.71313,133.80898 289.7129,133.84141 289.71309,133.8445 C 289.71285,133.84656 289.71297,133.88087 289.71309,133.88257 C 289.71626,133.88265 289.7486,133.88257 289.75116,133.88257 C 289.85133,133.83843 290.12188,133.63886 290.55067,133.27342 L 293.97716,130.3038 L 293.21572,133.1592 C 292.81056,134.70856 291.73813,136.25573 290.77911,136.62376 C 290.686,136.66374 290.56203,136.74697 290.47453,136.81412 C 289.6592,137.46432 288.99932,139.37252 288.98972,141.34469 C 288.98294,142.73604 288.91866,143.57972 288.76129,143.97166 C 288.754,143.98643 288.72752,144.03892 288.72322,144.04781 C 288.72312,144.05647 288.72292,144.0841 288.72322,144.08588 C 288.71819,144.09087 288.69018,144.11903 288.68515,144.12395 C 288.67796,144.13132 288.65217,144.15686 288.64707,144.16202 C 288.63852,144.16209 288.6111,144.1623 288.609,144.16202 C 288.6089,144.1706 288.6087,144.19803 288.609,144.20009 C 288.60599,144.1999 288.57343,144.20014 288.57093,144.20009 C 288.56793,144.19996 288.53537,144.20013 288.53286,144.20009 C 288.52689,144.2 288.49684,144.19998 288.49478,144.20009 C 288.49186,144.20019 288.4592,144.20007 288.45671,144.20009 C 288.4538,144.20025 288.42111,144.20004 288.41864,144.20009 C 288.4187,144.19657 288.4183,144.16642 288.41864,144.16202 C 288.41718,144.16218 288.38687,144.16207 288.38057,144.16202 C 288.37706,144.16207 288.34692,144.16167 288.3425,144.16202 C 288.34073,144.15994 288.3131,144.13251 288.30442,144.12395 C 288.15214,144.00072 287.9479,143.77065 287.73334,143.43865 C 287.49546,143.07059 287.26715,142.76418 287.08612,142.60107 C 287.05377,142.57732 286.99614,142.54193 286.9719,142.52492 C 286.96565,142.51821 286.94031,142.49347 286.93383,142.48685 C 286.92095,142.47998 286.87153,142.45555 286.85769,142.44878 C 286.85414,142.44883 286.82337,142.44845 286.81962,142.44878 C 286.81622,142.44878 286.78544,142.4486 286.78154,142.44878 C 286.77417,142.4486 286.75448,142.4488 286.74347,142.44878 C 286.35218,141.83798 285.46931,139.32339 290.28417,132.8927 C 284.21125,139.77461 285.20848,143.48646 287.99985,145.53261 C 288.0065,145.53968 288.03113,145.5638 288.03792,145.57069 C 288.04139,145.57063 288.07166,145.57086 288.07599,145.57069 C 288.46312,145.95937 288.87279,146.33751 289.33237,146.67478 C 291.96446,148.60642 298.44363,148.7205 363.95355,147.93115 C 379.65876,147.7419 396.95584,147.53526 410.82022,147.322 L 408.76433,249.13946 L 268.07036,249.13946 L 268.07036,157.79181 L 273.53248,139.09844 C 273.5322,139.09635 273.5324,139.06893 273.53248,139.06037 L 275.47415,133.50185 C 276.60242,132.3717 320.64672,99.15669 343.28044,87.130119 C 353.18666,81.866371 405.1767,79.990681 454.56499,79.782217 C 455.65514,79.777624 456.75751,79.754525 457.83918,79.744145 z M 624.67082,80.657874 C 625.67077,80.653183 626.64232,80.66165 627.5643,80.657874 C 628.51601,80.653975 629.4062,80.660761 630.26741,80.657874 C 632.10466,80.651721 633.73125,80.658994 635.10256,80.657874 C 637.47755,80.655936 639.07195,80.67934 639.74735,80.695946 C 639.74772,80.700417 639.74725,80.730509 639.74735,80.734018 C 639.73486,80.747419 639.72258,80.797272 639.70927,80.810162 C 639.719,80.810186 639.74007,80.809881 639.74735,80.810162 C 639.75647,80.810393 639.77708,80.810186 639.78542,80.810162 C 642.22521,82.942305 668.31462,124.09865 671.84207,138.337 C 670.16557,137.85645 669.81058,138.2137 668.18715,138.10857 C 665.35769,125.10709 646.77852,96.784089 636.39701,82.104611 C 635.81001,82.284908 635.18281,82.396309 634.56955,82.409187 C 609.22963,82.941062 545.71419,82.937724 545.70943,82.942195 C 545.6996,82.952051 545.68093,82.970168 545.67136,82.980267 C 544.4983,84.285291 545.37142,87.628393 547.72725,94.401877 C 554.33383,113.39749 563.46683,135.85974 565.69724,138.60351 L 568.05771,141.49698 C 568.0577,141.49698 676.44178,141.37548 676.44878,141.38276 C 676.4485,141.39586 676.44869,141.44514 676.44878,141.45891 C 676.45023,141.46672 676.44699,141.48856 676.44878,141.49698 C 676.71606,142.63397 679.62504,148.52592 680.1037,151.70028 C 676.5083,150.78654 666.91893,150.68853 663.27586,151.548 C 653.61247,153.82776 654.46364,188.72533 663.04743,190.80026 L 658.593,192.70386 C 655.65576,209.38904 655.58515,229.60834 659.65902,244.40568 C 655.49804,245.06589 619.23595,245.97146 619.22652,245.96663 C 619.22686,245.96219 619.22644,245.93211 619.22652,245.92856 C 619.22248,245.92493 619.19185,245.89397 619.18845,245.89049 C 619.18883,245.88653 619.18836,245.85584 619.18845,245.85242 C 619.18046,245.84421 619.15357,245.8171 619.15038,245.81435 C 620.4166,213.01525 595.82613,176.04487 545.89979,184.63259 L 545.02413,162.28431 L 526.86377,81.381242 C 526.87256,81.381242 593.67251,80.803169 624.67082,80.657874 z M 636.39701,82.104611 C 636.41009,82.09802 636.4601,82.07341 636.47315,82.066539 C 636.59847,82.017831 636.73228,81.959632 636.85387,81.914251 C 636.6716,81.934401 636.48288,81.946597 636.28279,81.914251 C 636.32513,81.974057 636.35439,82.044353 636.39701,82.104611 z M 637.61531,81.685818 C 637.61524,81.694334 637.61507,81.721624 637.61531,81.72389 C 637.62163,81.717178 637.64707,81.692556 637.65338,81.685818 C 637.65174,81.68555 637.62402,81.685733 637.61531,81.685818 z M 547.46074,84.503149 L 591.09129,84.503149 L 634.72184,84.503149 L 642.45046,95.087173 C 649.66161,104.91623 665.9094,139.81496 665.90283,139.82181 C 664.42438,140.80298 582.69741,139.8986 579.17474,140.2406 C 569.20906,141.20811 566.58327,139.49513 562.65148,129.352 C 556.58643,113.70555 548.97305,92.064741 548.26025,88.500712 L 547.46074,84.503149 z M 433.09236,85.074229 C 433.14581,85.06832 433.20884,85.077141 433.28272,85.074229 C 433.47972,85.066469 433.75266,85.076678 434.08223,85.074229 C 443.96965,85.001009 509.94679,85.42253 512.51062,86.292534 C 512.51048,86.297176 512.51063,86.326988 512.51062,86.330606 C 512.5129,86.330375 512.54019,86.330545 512.54869,86.330606 C 513.08854,87.75729 523.37055,131.06842 523.62765,132.28355 C 524.79968,137.82295 520.84508,141.77865 518.71636,141.83963 L 425.78253,144.50467 L 428.90444,87.548911 C 429.43368,85.928626 430.44019,85.592301 432.86393,85.150373 C 432.87227,85.142332 432.89929,85.115554 432.902,85.112301 C 432.94116,85.10945 433.00329,85.084073 433.09236,85.074229 z M 426.7724,85.150373 C 426.81659,85.145878 426.85336,85.154832 426.88662,85.150373 C 426.89049,85.150178 426.92117,85.1503 426.92469,85.150373 C 426.9307,85.150946 426.95728,85.150227 426.96276,85.150373 C 426.96622,85.15041 426.99672,85.150227 427.00083,85.150373 C 427.01146,85.146645 423.61465,144.27663 423.61242,144.27624 C 422.04624,144.00726 414.20024,144.48983 413.7137,144.50467 C 413.89036,142.61106 417.97884,96.568839 418.96764,85.454949 C 418.96775,85.45367 425.40258,85.289662 426.7724,85.150373 z M 413.75177,85.493022 C 414.18643,85.546883 417.38663,85.477184 417.59704,85.493022 C 416.43303,96.039169 411.05149,144.50445 411.04865,144.50467 L 407.35567,144.80925 L 413.75177,85.493022 z M 405.90893,85.64531 C 406.01381,85.64185 406.11194,85.647271 406.21351,85.64531 C 406.61976,85.637476 406.99864,85.645919 407.35567,85.64531 C 410.44981,85.640095 411.77742,85.740033 411.96238,85.759526 L 405.03327,144.65696 C 403.84506,146.987 316.02603,144.66519 313.62233,144.31431 C 313.61876,144.31435 313.58833,144.31415 313.58425,144.31431 C 313.57685,144.30677 313.55087,144.28079 313.54618,144.27624 C 313.52573,144.25565 313.48748,144.21847 313.47004,144.20009 C 313.46742,144.19719 312.89848,142.09072 313.12739,139.21266 C 313.3676,136.19225 313.08109,131.82327 312.48016,129.50429 L 311.37608,125.27829 L 307.91152,128.55249 C 306.38885,129.96365 305.39004,130.81721 304.90383,131.06524 C 304.89512,131.06535 304.86743,131.0653 304.86576,131.06524 C 304.85602,131.07035 304.79907,131.09858 304.78961,131.10331 C 304.78785,131.10537 304.7602,131.13281 304.75154,131.14139 C 304.749,131.14137 304.71655,131.1415 304.71347,131.14139 C 304.71045,131.14141 304.6809,131.14134 304.6754,131.14139 C 304.67167,131.13714 304.64104,131.10696 304.63733,131.10331 C 304.62974,131.09586 304.60198,131.0678 304.59925,131.06524 C 304.59559,131.06153 304.56545,131.03089 304.56118,131.02717 C 304.56151,131.02509 304.56128,130.99768 304.56118,130.9891 C 304.5613,130.98636 304.56115,130.95349 304.56118,130.95103 C 304.5614,130.93543 304.56112,130.88641 304.56118,130.87488 C 304.56135,130.8694 304.56134,130.84376 304.56118,130.83681 C 304.56117,130.82554 304.56096,130.80387 304.56118,130.79874 C 304.61912,130.28632 304.97435,129.21772 305.58913,127.60069 C 306.26602,125.82029 308.12876,124.14667 309.77705,123.83156 C 309.96843,123.79497 310.12513,123.75182 310.23391,123.71734 C 310.23729,123.71743 310.26812,123.71702 310.27199,123.71734 C 310.29252,123.70729 310.33768,123.6845 310.34813,123.67927 C 310.35065,123.67673 310.38318,123.64438 310.3862,123.6412 C 310.38875,123.63874 310.42144,123.60601 310.42427,123.60312 C 310.4242,123.60193 310.42419,123.57145 310.42427,123.56505 C 310.42459,123.56298 310.42437,123.53556 310.42427,123.52698 C 310.42146,123.52468 310.38933,123.4912 310.3862,123.48891 C 310.38318,123.48918 310.35066,123.48882 310.34813,123.48891 C 310.34411,123.48926 310.31347,123.48882 310.31006,123.48891 C 309.90451,123.31883 308.56568,123.16534 306.54093,123.10819 C 304.77715,123.05838 303.43788,123.06429 302.31493,123.26048 L 314.30762,114.12319 C 314.30754,114.11968 314.3079,114.08956 314.30762,114.08512 L 314.42184,114.04704 C 314.42862,114.04022 314.45316,114.01593 314.45991,114.00897 C 314.46772,114.00108 314.49283,113.97609 314.49798,113.9709 C 314.5112,113.96443 314.56118,113.93912 314.57413,113.93283 C 316.59922,112.64212 319.80405,110.44745 323.82563,107.53673 C 337.31242,97.775339 350.54631,91.126403 360.94586,88.881432 C 365.41859,87.915889 377.54318,86.732001 387.86279,86.254462 C 395.63169,85.89494 401.14795,85.734051 404.91906,85.683382 C 405.25997,85.678801 405.59428,85.65569 405.90893,85.64531 z M 271.17201,137.19484 C 271.17542,137.19454 271.20693,137.19477 271.21008,137.19484 C 271.21315,137.19496 271.24487,137.19506 271.24815,137.19484 C 271.25155,137.19457 271.28307,137.19478 271.28623,137.19484 C 271.2893,137.19495 271.32103,137.19503 271.3243,137.19484 C 271.33394,137.19499 271.3909,137.19467 271.40044,137.19484 C 271.40579,137.1945 271.4272,137.19485 271.43851,137.19484 C 271.44195,137.19495 271.47315,137.19499 271.47659,137.19484 C 271.48191,137.19456 271.50334,137.19485 271.51466,137.19484 C 271.51812,137.19493 271.54933,137.19495 271.55273,137.19484 C 271.69566,137.17877 271.83253,137.18224 271.93345,137.19484 C 271.93684,137.19479 271.9676,137.19499 271.97152,137.19484 C 272.00124,137.20165 272.06023,137.22345 272.08574,137.23291 C 272.09437,137.23299 272.12192,137.23313 272.12381,137.23291 C 272.12754,137.23579 272.15823,137.26776 272.16188,137.27098 C 272.16185,137.27447 272.1618,137.30473 272.16188,137.30906 L 266.96627,157.79181 L 266.96627,249.32185 C 266.96628,249.32185 252.31769,249.19085 250.84155,249.51221 C 250.83938,249.51196 250.81201,249.51213 250.80347,249.51221 C 245.33981,207.73516 224.64159,184.46076 192.97206,182.3102 C 167.96474,180.61204 147.15824,192.29518 136.93003,208.5799 C 130.6624,218.55883 127.20677,233.1224 128.13539,239.18981 L 119.87376,239.03752 C 119.87376,239.03754 122.68642,220.43826 116.1427,212.1206 C 109.38873,203.5357 99.864037,205.8261 87.09374,205.61028 L 91.281663,188.09715 C 92.959683,193.16722 102.14125,192.32841 102.96871,191.46371 C 103.3468,193.94329 123.19706,192.28002 124.64579,190.85455 L 124.68386,190.85455 C 127.00757,188.39318 131.8384,180.80219 132.79427,176.59939 C 133.27221,174.49799 133.55036,172.50662 133.63185,170.92666 C 133.67261,170.13667 133.67213,165.38273 133.59378,164.81855 C 133.51543,164.25437 133.40914,163.76793 132.98463,163.40988 C 132.59738,163.08195 132.12806,162.94522 131.49982,162.80073 C 130.87158,162.65624 130.12532,162.54902 129.25357,162.45808 C 127.51009,162.2762 125.34295,162.18824 123.20012,162.19158 C 121.05729,162.19492 122.34095,162.31248 120.6352,162.49616 C 119.78232,162.58799 118.81552,162.90908 118.42702,162.8388 C 118.35094,162.82504 118.47625,161.32746 119.07425,160.87564 C 121.84718,159.3109 125.57459,158.37876 130.68622,156.84001 C 141.26581,153.65522 166.19181,150.23606 215.01576,145.34225 C 240.19512,142.8184 263.19404,139.93632 266.10843,138.90808 C 268.63834,138.01548 270.23736,137.39451 271.17201,137.19484 z M 668.30137,151.96679 C 668.37681,151.96307 668.45363,151.96989 668.5298,151.96679 C 668.60842,151.96357 668.67884,151.96937 668.75823,151.96679 C 672.47142,151.84601 676.97097,152.39562 680.63671,153.37545 C 680.65635,153.39496 680.6984,153.43753 680.71285,153.4516 C 683.13422,155.89166 683.75206,166.72995 684.63427,174.73386 C 676.30672,175.20928 666.46369,174.93574 658.13614,174.81001 C 656.9993,167.61526 658.94665,156.32593 662.78092,153.22317 C 663.98519,152.50094 665.96298,152.08214 668.30137,151.96679 z M 668.30137,152.84244 C 666.35971,152.96562 664.74092,153.33608 663.80887,153.75617 L 678.4666,153.79425 C 675.9226,153.25359 673.11098,152.89603 670.54762,152.84244 C 670.05969,152.83225 669.56496,152.82876 669.10088,152.84244 C 668.95702,152.84668 668.82294,152.8359 668.68209,152.84244 C 668.67384,152.84283 668.65208,152.84232 668.64402,152.84244 C 668.61234,152.84218 668.56131,152.84259 668.5298,152.84244 C 668.52181,152.84262 668.49989,152.84199 668.49173,152.84244 C 668.42844,152.84592 668.364,152.83847 668.30137,152.84244 z M 662.62864,154.97448 C 662.5239,155.12834 662.38957,155.29603 662.28599,155.46941 L 680.63671,155.50749 C 680.56514,155.32127 680.47866,155.16488 680.40827,155.01255 L 662.62864,154.97448 z M 661.63876,156.68772 C 661.56068,156.85351 661.4864,157.00717 661.41033,157.18266 L 681.16972,157.2588 C 681.12528,157.07931 681.06316,156.89425 681.01743,156.72579 L 661.63876,156.68772 z M 660.95347,158.40096 C 660.89009,158.57576 660.824,158.75299 660.76311,158.93397 L 681.51236,159.01011 C 681.47789,158.83164 681.47182,158.64923 681.43622,158.47711 L 660.95347,158.40096 z M 660.34431,160.15227 C 660.29892,160.31271 660.27325,160.48351 660.2301,160.64721 L 681.85501,160.72336 C 681.82845,160.55479 681.76831,160.39344 681.7408,160.22842 L 660.34431,160.15227 z M 659.96359,161.86552 C 659.92908,162.02385 659.88153,162.16203 659.84938,162.32238 C 659.84965,162.33531 659.8491,162.38559 659.84938,162.39852 L 682.08344,162.47467 C 682.05989,162.29816 682.03148,162.11565 682.0073,161.94166 L 659.96359,161.86552 z M 113.40151,163.50261 C 114.60056,163.43856 115.41965,163.52386 115.91427,163.80719 C 116.00029,163.85939 116.10552,163.93303 116.18077,163.99755 C 116.20723,164.02156 116.23501,164.04722 116.25692,164.07369 C 116.26186,164.07852 116.29008,164.10692 116.29499,164.11177 C 116.30136,164.12462 116.32692,164.17479 116.33306,164.18791 C 116.59054,164.60523 116.66942,165.26682 116.63764,166.16766 C 116.60562,167.07495 116.60179,167.88413 116.63764,168.41391 C 116.63845,168.42594 116.63678,168.44023 116.63764,168.45198 C 116.63414,168.46198 116.64114,168.48005 116.63764,168.49005 C 116.2329,169.64357 115.74953,170.76213 115.22897,171.91653 L 115.22897,171.9546 L 114.92439,172.25918 L 111.42177,178.00806 C 106.97296,185.28686 103.83249,187.91905 103.42664,188.05907 C 103.39644,188.06872 95.721715,192.5233 94.251282,186.3839 C 93.668249,183.9496 97.315891,175.78701 100.03823,172.14496 C 100.72953,171.22011 101.19295,170.62658 101.40882,170.4698 C 101.41135,170.46982 101.44384,170.46958 101.4469,170.4698 C 101.45322,170.46355 101.48362,170.43336 101.48497,170.43172 C 101.49002,170.43666 101.51813,170.46456 101.52304,170.4698 C 101.52819,170.47447 101.55608,170.5029 101.56111,170.50787 C 101.56101,170.51084 101.40457,171.52292 101.14232,172.56376 C 100.93802,173.3747 100.85168,174.00519 100.95196,174.42929 C 100.95621,174.4337 100.98652,174.46386 100.99003,174.46736 C 101.31604,174.66398 103.38454,175.42838 106.01554,175.41916 C 107.80394,175.4129 111.07183,175.48656 111.80249,175.4953 C 106.66893,174.77845 104.16709,173.96966 103.50279,173.3252 C 103.49933,173.32164 103.47256,173.29486 103.46471,173.28713 C 103.4617,173.28359 103.43471,173.25681 103.42664,173.24905 C 103.42319,173.2457 103.39271,173.21487 103.38857,173.21098 C 103.37826,173.19083 103.35561,173.14513 103.3505,173.13484 C 103.35056,173.13147 103.35016,173.10068 103.3505,173.09677 C 103.34317,173.08371 103.31881,173.0336 103.31242,173.02062 C 103.31219,173.01731 103.31236,172.99042 103.31242,172.98255 C 103.31261,172.97928 103.31257,172.95236 103.31242,172.94448 C 103.31943,172.93774 103.34339,172.91313 103.3505,172.90641 C 103.3504,172.90303 103.35076,172.87229 103.3505,172.86833 C 103.35675,172.85413 103.37814,172.81178 103.38857,172.79219 C 103.39538,172.78543 103.41973,172.76087 103.42664,172.75412 C 103.43242,172.74782 103.45852,172.72231 103.46471,172.71605 C 103.50276,172.68021 103.56549,172.63623 103.617,172.60183 C 104.68225,171.92431 108.3297,171.5165 112.64007,171.91653 C 111.64841,171.68594 109.69342,171.22949 108.71865,171.0028 C 106.92563,170.58584 105.34586,169.90314 104.75916,169.40378 C 104.75021,169.39581 104.72952,169.37358 104.72109,169.36571 C 104.71294,169.35769 104.69061,169.33555 104.68302,169.32763 C 104.6794,169.3236 104.65273,169.29708 104.64495,169.28956 C 104.64004,169.2799 104.61132,169.22301 104.60687,169.21342 C 104.60332,169.2099 104.57301,169.17898 104.5688,169.17535 C 104.55924,169.15584 104.5344,169.10646 104.53073,169.0992 C 104.53073,167.08185 109.5494,163.78835 113.02079,163.54069 C 113.15311,163.53124 113.27748,163.50924 113.40151,163.50261 z M 659.62095,163.61683 C 659.59552,163.77677 659.56803,163.95101 659.5448,164.11177 L 682.2738,164.18791 C 682.25425,164.02377 682.25569,163.85567 682.23573,163.69297 L 659.62095,163.61683 z M 659.39251,165.33007 C 659.37275,165.51034 659.33349,165.6826 659.31637,165.86308 L 682.50224,165.93922 C 682.48248,165.75817 682.48429,165.58623 682.46416,165.40622 L 659.39251,165.33007 z M 659.24023,167.08138 C 659.23009,167.24322 659.21022,167.41496 659.20215,167.57632 L 682.6926,167.65246 C 682.67549,167.48648 682.67184,167.32317 682.65452,167.15753 L 659.24023,167.08138 z M 123.20012,163.40988 C 125.30866,163.40661 127.42146,163.50115 129.10128,163.67639 C 129.94119,163.76401 130.68173,163.89218 131.23332,164.01904 C 131.75043,164.13797 132.14144,164.31077 132.22319,164.36169 C 132.24445,164.42326 132.3294,164.63902 132.37548,164.97084 C 132.43692,165.41327 132.45173,170.11038 132.41355,170.85052 C 132.3372,172.33079 132.07893,174.28882 131.61404,176.33289 C 130.68878,180.40109 124.60076,189.97766 123.96093,190.14635 C 117.70575,191.79555 105.64623,192.20352 103.92051,190.47383 C 105.27195,188.97092 109.85074,184.21307 111.19334,182.3102 C 111.2029,182.31257 111.2219,182.3078 111.23141,182.3102 C 112.14991,182.54237 112.76544,182.88371 114.61982,182.99549 C 116.66603,183.11883 116.79082,182.99328 124.15192,182.27212 L 124.30421,182.23405 L 124.41842,182.15791 C 127.21346,180.14811 129.01481,177.18792 128.33984,174.50543 C 128.33984,174.50543 126.25023,174.15829 125.29408,174.04857 C 123.44815,173.83674 123.33597,173.64605 116.06656,174.01049 C 117.8194,172.31008 119.00266,164.13156 118.7316,164.01904 C 118.23705,163.81375 119.9287,163.76476 120.74942,163.67639 C 121.98048,163.54383 122.67298,163.4107 123.20012,163.40988 z M 659.16408,168.79463 C 659.16091,168.9711 659.16478,169.15253 659.16408,169.32763 L 682.84488,169.40378 C 682.82696,169.2246 682.82487,169.05015 682.80681,168.87077 L 659.16408,168.79463 z M 659.16408,170.54594 C 659.16938,170.72235 659.19428,170.90486 659.20215,171.07895 L 683.03524,171.15509 C 683.01746,170.97711 682.97691,170.80089 682.9591,170.62208 L 659.16408,170.54594 z M 659.2783,172.29725 C 659.30098,172.5721 659.32508,172.83082 659.35444,173.09677 C 667.0147,173.22078 675.63068,173.41865 683.2256,173.05869 C 683.2013,172.82429 683.1736,172.6105 683.14946,172.3734 L 659.2783,172.29725 z M 121.54893,175.03844 C 122.53527,175.02097 124.22867,175.16208 125.14179,175.26687 C 126.05491,175.37166 126.52312,175.46448 126.93118,175.4953 C 126.93529,175.49502 126.96522,175.49611 126.96925,175.4953 C 126.97707,175.49203 126.99963,175.46156 127.00732,175.45723 C 127.01497,175.45246 127.03767,175.46186 127.04539,175.45723 C 127.04929,175.45506 127.07952,175.4211 127.08347,175.41916 C 127.08756,175.41789 127.11736,175.41998 127.12154,175.41916 C 127.22753,177.24618 126.00796,179.42787 123.80927,181.05382 C 123.66406,181.10507 121.45092,181.01836 120.93978,181.47261 C 120.9247,181.48525 120.87741,181.5016 120.86363,181.51068 C 120.85504,181.51509 120.83353,181.54605 120.82556,181.54876 C 120.82189,181.54923 120.791,181.54873 120.78749,181.54876 C 120.78114,181.54694 120.75509,181.51441 120.74942,181.51068 C 120.73578,181.49864 120.7232,181.48579 120.71134,181.47261 C 120.70585,181.46575 120.67834,181.44167 120.67327,181.43454 C 120.66399,181.41975 120.64285,181.37421 120.6352,181.3584 C 120.62835,181.34208 120.60243,181.29953 120.59713,181.28225 C 120.59258,181.26451 120.60021,181.22475 120.59713,181.20611 C 120.59239,181.16796 120.59647,181.09522 120.59713,181.05382 C 120.63839,180.15791 121.81631,178.56252 121.92965,177.93191 C 121.93068,177.92476 121.92892,177.90072 121.92965,177.89384 C 121.93006,177.88723 121.92955,177.8621 121.92965,177.85577 C 121.92942,177.84973 121.93022,177.82346 121.92965,177.8177 C 121.92873,177.81224 121.93092,177.78479 121.92965,177.77963 C 121.92641,177.76992 121.89629,177.75001 121.89158,177.74155 C 121.88884,177.73764 121.8947,177.70706 121.89158,177.70348 C 121.88806,177.70023 121.85741,177.70639 121.8535,177.70348 C 121.84876,177.70126 121.8206,177.66727 121.81543,177.66541 C 121.80984,177.6639 121.78339,177.66655 121.77736,177.66541 C 121.77089,177.66463 121.74621,177.66581 121.73929,177.66541 C 121.73191,177.66538 121.70906,177.66504 121.70122,177.66541 C 121.69149,177.66586 121.67294,177.66448 121.66314,177.66541 C 121.63356,177.66956 121.57908,177.69529 121.54893,177.70348 C 121.49836,177.71928 121.41052,177.75359 121.35857,177.77963 C 121.24374,177.84114 121.09738,177.94341 120.97785,178.04613 C 120.01921,178.89379 118.93677,180.89623 118.38895,181.39647 C 118.37067,181.41237 118.32984,181.42224 118.31281,181.43454 C 118.30726,181.43823 118.28013,181.46935 118.27473,181.47261 C 118.26948,181.47545 118.24177,181.47021 118.23666,181.47261 C 118.23186,181.47411 118.20324,181.50965 118.19859,181.51068 C 118.19425,181.51078 118.1647,181.51107 118.16052,181.51068 C 118.1565,181.50979 118.16438,181.47399 118.16052,181.47261 C 118.12776,181.46089 118.0736,181.44956 118.0463,181.43454 C 118.02928,181.42382 117.98489,181.40857 117.97016,181.39647 C 117.96335,181.39008 117.93833,181.36511 117.93208,181.3584 C 117.92066,181.34434 117.90333,181.29757 117.89401,181.28225 C 117.88572,181.26634 117.86224,181.22319 117.85594,181.20611 C 117.8506,181.18845 117.82132,181.1487 117.81787,181.12996 C 117.8128,181.09142 117.816,181.02018 117.81787,180.97768 C 117.88983,180.08723 119.34121,178.40504 119.56918,177.74155 C 119.57884,177.71039 119.60378,177.65346 119.60725,177.62734 C 119.60772,177.62114 119.60722,177.59513 119.60725,177.58927 C 119.60686,177.58375 119.60808,177.55636 119.60725,177.55119 C 119.6047,177.54157 119.57358,177.52127 119.56918,177.51312 C 119.56286,177.50648 119.53943,177.48012 119.53111,177.47505 C 119.52591,177.47333 119.49876,177.47635 119.49304,177.47505 C 119.48676,177.47416 119.46179,177.47551 119.45497,177.47505 C 119.44758,177.47502 119.42484,177.47463 119.41689,177.47505 C 117.82646,177.55786 116.75146,180.56144 115.91427,181.51068 C 115.88313,181.54472 115.83059,181.59698 115.80005,181.6249 C 115.76965,181.65122 115.71567,181.68149 115.68584,181.70104 C 115.67842,181.70549 115.65516,181.73512 115.64776,181.73912 C 115.61833,181.75326 115.56248,181.77072 115.53355,181.77719 C 115.52635,181.77831 115.50265,181.77658 115.49547,181.77719 C 115.48834,181.77729 115.46452,181.77761 115.4574,181.77719 C 115.31267,181.76847 115.16204,181.75895 115.03861,181.73912 C 114.98291,181.72843 114.89484,181.72431 114.84825,181.70104 C 114.84078,181.69672 114.81734,181.66777 114.81018,181.66297 C 114.80333,181.65768 114.77861,181.63072 114.77211,181.6249 C 114.76594,181.61853 114.73985,181.59377 114.73403,181.58683 C 114.72314,181.57171 114.70531,181.52839 114.69596,181.51068 C 114.68742,181.49161 114.66474,181.45653 114.65789,181.43454 C 114.65547,181.42673 114.65992,181.40453 114.65789,181.39647 C 114.64969,181.3549 114.61873,181.29169 114.61982,181.24418 C 114.62208,181.20528 114.6503,181.13415 114.65789,181.09189 C 114.85055,180.15532 116.23908,178.45055 116.52342,177.66541 C 116.53831,177.62148 116.55441,177.55073 116.56149,177.51312 C 116.56258,177.50587 116.56075,177.48203 116.56149,177.47505 C 116.56188,177.46835 116.56146,177.4434 116.56149,177.43698 C 116.56118,177.43085 116.56217,177.40474 116.56149,177.3989 C 116.56043,177.39336 116.56293,177.36607 116.56149,177.36083 C 116.55926,177.35622 116.52605,177.32706 116.52342,177.32276 C 116.51651,177.31545 116.49396,177.29066 116.48535,177.28469 C 116.47586,177.2794 116.45855,177.2505 116.44728,177.24662 C 116.44118,177.24503 116.41576,177.24784 116.4092,177.24662 C 116.40217,177.24576 116.37864,177.2471 116.37113,177.24662 C 116.2124,177.23637 116.03494,177.28862 115.8762,177.36083 C 114.57062,178.00109 113.28914,181.06539 112.94465,181.39647 C 112.94159,181.39908 112.94755,181.43242 112.94465,181.43454 C 112.94207,181.43565 112.90899,181.43394 112.90658,181.43454 C 112.65152,181.37784 112.14091,181.33357 111.9167,181.28225 C 111.92331,181.27248 111.91011,181.25395 111.9167,181.24418 C 112.80231,179.93169 113.64234,178.57627 114.42946,177.17047 C 114.44227,177.14758 114.45475,177.11725 114.46753,177.09433 L 115.64776,175.26687 C 117.94923,175.14745 119.90503,175.06754 121.54893,175.03844 z M 98.781853,175.83795 L 98.020413,177.85577 C 100.75992,177.7835 109.25788,177.14798 110.50804,177.05626 C 108.72392,176.88628 101.42632,175.91116 98.781853,175.83795 z M 659.39251,175.95217 C 659.5228,175.94866 659.64199,175.95403 659.77323,175.95217 C 660.29821,175.94471 660.83265,175.95524 661.37226,175.95217 C 668.92682,175.90927 677.30959,175.98275 684.5962,176.25674 C 685.35836,178.41898 685.33893,187.10145 683.07332,189.27738 C 682.98581,189.35859 682.86304,189.44449 682.76874,189.50581 C 682.71593,189.5386 682.63334,189.59377 682.57838,189.62003 C 682.54218,189.63833 682.46307,189.68033 682.42609,189.69617 C 676.2522,190.78312 666.85338,190.90583 663.69465,189.6581 C 659.8604,187.61439 659.01375,182.99054 658.21228,175.99024 C 658.60264,175.98635 659.00166,175.96271 659.39251,175.95217 z M 661.10575,176.82782 C 660.64567,176.83852 660.18251,176.86228 659.73516,176.8659 C 659.78464,177.25572 659.8369,177.66515 659.88745,178.04613 L 683.68247,178.0842 C 683.62483,177.72349 683.54839,177.44167 683.49211,177.1324 C 677.09776,176.91188 670.03291,176.81104 663.39008,176.82782 C 662.775,176.82938 662.17347,176.81991 661.56262,176.82782 C 661.4099,176.82981 661.25912,176.82425 661.10575,176.82782 z M 97.258972,178.61721 L 96.535603,180.63503 C 99.229641,180.56569 107.30425,179.96445 109.09937,179.83551 C 106.98508,179.62253 99.882665,178.68805 97.258972,178.61721 z M 660.07781,179.26443 C 660.10277,179.43603 660.12816,179.59122 660.15395,179.75937 L 683.79669,179.79744 C 683.79515,179.62905 683.76336,179.46468 683.75861,179.30251 L 660.07781,179.26443 z M 660.30624,180.97768 C 660.33116,181.11615 660.38049,181.26479 660.42046,181.39647 C 660.4225,181.40368 660.41719,181.42498 660.42046,181.43454 C 660.42785,181.45548 660.45414,181.4947 660.45853,181.51068 L 683.75861,181.54876 C 683.76778,181.36725 683.75261,181.19558 683.75861,181.01575 L 660.30624,180.97768 z M 95.659947,181.73912 L 95.012722,183.75693 C 96.556814,183.71163 100.19179,183.43654 102.96978,183.22393 C 103.32311,183.19688 103.67826,183.21071 103.99772,183.18585 C 105.85309,183.10419 107.31704,183.01432 107.53842,182.99549 C 107.53652,182.9933 107.50896,182.96595 107.50035,182.95742 C 106.85967,182.75281 103.38919,182.44547 100.38088,182.19598 C 100.29195,182.18861 100.20241,182.16515 100.11437,182.15791 C 99.967483,182.14019 99.803049,182.13703 99.65751,182.11984 C 99.538214,182.10575 99.432806,182.09542 99.314862,182.08176 C 99.311536,182.0815 99.28466,182.08168 99.27679,182.08176 C 99.251473,182.08202 99.225804,182.0815 99.200646,182.08176 C 99.192751,182.08185 99.165875,182.08203 99.162574,182.08176 C 97.757649,181.92067 96.462871,181.76384 95.659947,181.73912 z M 660.72503,182.72899 C 660.76584,182.88962 660.79576,183.07208 660.83925,183.22393 L 683.60633,183.262 C 683.6168,183.16428 683.63499,183.05592 683.6444,182.95742 C 683.64426,182.95364 683.6444,182.92268 683.6444,182.91935 C 683.65241,182.89245 683.6745,182.83207 683.68247,182.80513 C 683.68247,182.80181 683.68259,182.77083 683.68247,182.76706 L 660.72503,182.72899 z M 95.203082,184.44223 L 94.59393,186.46005 C 96.807858,186.39053 103.46279,185.7874 104.91145,185.66054 C 103.17903,185.44755 97.35361,184.51306 95.203082,184.44223 z M 661.21997,184.44223 C 661.29205,184.62267 661.37127,184.80767 661.4484,184.97524 L 683.37789,185.01331 C 683.41063,184.84504 683.42515,184.65591 683.45404,184.4803 L 661.21997,184.44223 z M 662.1337,186.19354 C 662.17568,186.25445 662.23839,186.32766 662.28599,186.3839 C 662.38255,186.49509 662.49691,186.61848 662.59056,186.72655 L 682.88296,186.76462 C 682.89379,186.7363 682.91041,186.67982 682.92103,186.65041 C 682.96868,186.51848 682.99152,186.37686 683.03524,186.23162 L 662.1337,186.19354 z M 664.15152,187.94486 C 664.17118,187.95853 664.17155,188.00548 664.18959,188.021 C 664.20783,188.03621 664.24463,188.0476 664.26573,188.05907 C 665.46819,188.50864 668.5226,188.86881 671.91821,188.85859 C 675.30058,188.84841 679.04572,188.52886 682.0073,188.021 C 682.01148,188.02132 682.04191,188.02097 682.04537,188.021 C 682.0494,188.01674 682.08002,187.98641 682.08344,187.98293 L 664.15152,187.94486 z M 494.33976,250.26877 C 494.05848,248.59005 494.15276,246.15793 494.27877,245.86722 C 494.27883,245.85863 494.27899,245.83109 494.27877,245.82914 C 494.31416,245.77013 494.3838,245.69284 494.43106,245.63878 C 494.45908,245.6083 494.51325,245.55348 494.54527,245.52457 C 495.30556,244.86852 492.94996,244.61083 496.45938,244.61084 C 499.85939,244.61084 501.50476,244.62926 502.17019,245.14385 C 502.19022,245.16357 502.23334,245.20744 502.24633,245.21999 C 502.25366,245.22765 502.27739,245.25022 502.2844,245.25806 C 502.34464,245.33049 502.40097,245.43544 502.43669,245.52457 C 502.43633,245.52828 502.43679,245.55933 502.43669,245.56264 C 502.44361,245.57576 502.46801,245.62552 502.47476,245.63878 C 502.59871,246.16917 502.63343,248.26487 502.34538,249.43119 C 501.88931,251.27783 501.13591,253.18952 500.63214,253.80947 C 500.61211,253.82977 500.56774,253.87353 500.556,253.88562 C 497.30715,254.39467 253.88906,254.9254 251.64106,254.76127 C 251.55423,254.44619 251.30277,251.81749 251.30617,251.81742 C 251.90504,251.86246 492.33036,250.26942 494.33976,250.26877 z "
         id="path17487" />
      <path
         style="fill:#ffffff;fill-opacity:1;stroke:none;stroke-width:1;stroke-miterlimit:4;stroke-dasharray:none;stroke-opacity:1"
         d="M 186.49031,218.29257 C 168.55301,218.86245 154.12908,233.6464 154.12908,251.71981 C 154.12908,270.15324 169.1229,285.10897 187.55633,285.10898 C 205.98976,285.10897 220.98357,270.15324 220.98357,251.71981 C 220.98358,233.28637 205.98976,218.29257 187.55633,218.29257 C 187.19629,218.29257 186.84763,218.28121 186.49031,218.29257 z M 186.94717,221.30026 C 187.14299,221.29653 187.35962,221.30026 187.55633,221.30026 C 204.3418,221.30027 217.89974,234.93433 217.89974,251.71981 C 217.89972,268.50529 204.3418,282.06322 187.55633,282.06322 C 170.77084,282.0632 157.13677,268.50529 157.13677,251.71981 C 157.13677,235.13104 170.43325,221.6142 186.94717,221.30026 z M 185.91923,222.21399 C 185.90058,222.23257 185.84517,222.28721 185.84309,222.29013 C 184.48302,222.3678 183.1504,222.56719 181.84552,222.82314 L 181.84552,235.5392 C 183.28,235.03361 184.83384,234.69239 186.41417,234.5874 L 186.41417,222.29013 C 186.40907,222.29001 186.35229,222.29002 186.33802,222.29013 C 186.33492,222.28975 186.30579,222.29002 186.29995,222.29013 C 186.29316,222.29037 186.26785,222.29012 186.26188,222.29013 C 186.25473,222.28867 186.2318,222.2544 186.22381,222.25206 C 186.18087,222.23726 186.11119,222.22578 186.07152,222.21399 C 186.06908,222.21386 186.03643,222.21397 186.03345,222.21399 C 186.02664,222.21424 186.00121,222.21388 185.99537,222.21399 C 185.98102,222.21416 185.92418,222.21418 185.91923,222.21399 z M 188.69849,222.29013 L 188.69849,234.5874 C 190.27882,234.69239 191.83263,235.03363 193.26713,235.5392 L 193.26713,222.82314 C 191.78156,222.53173 190.2545,222.34936 188.69849,222.29013 z M 207.31571,229.86646 L 197.07434,237.48087 C 198.38356,238.36563 199.55948,239.43765 200.57696,240.64085 L 210.47569,233.25488 C 209.50972,232.06392 208.45265,230.89376 207.31571,229.86646 z M 165.36033,232.37922 C 164.33848,233.54465 163.37358,234.75574 162.543,236.07221 L 173.27932,242.23987 C 174.13995,240.94582 175.1542,239.75161 176.32508,238.73725 L 165.36033,232.37922 z M 211.88436,235.04426 L 201.94756,242.46831 C 202.77538,243.75915 203.42961,245.19809 203.88923,246.6943 L 214.16868,239.0799 C 213.50183,237.68821 212.75241,236.30511 211.88436,235.04426 z M 185.76694,235.72956 C 181.02333,236.27535 176.89102,238.99755 174.34533,242.77288 L 179.8277,245.89479 C 181.29184,243.93379 183.41316,242.39983 185.91923,241.97337 C 185.94191,241.97372 186.04877,241.97291 186.07152,241.97337 C 186.09418,241.9737 186.16304,241.97296 186.18573,241.97337 C 186.19671,241.97282 186.2506,241.9733 186.26188,241.97337 C 186.30775,241.97542 186.40816,241.9748 186.45224,241.97337 L 186.45224,235.72956 C 186.43958,235.72937 186.42254,235.72942 186.41417,235.72956 C 186.34664,235.72849 186.21495,235.72983 186.14766,235.72956 C 186.13516,235.73003 186.08883,235.7295 186.07152,235.72956 C 186.05242,235.73132 186.01193,235.72986 185.99537,235.72956 C 185.98742,235.72916 185.96515,235.73003 185.9573,235.72956 C 185.93347,235.72845 185.87161,235.7265 185.84309,235.72956 C 185.80566,235.73358 185.8043,235.72526 185.76694,235.72956 z M 188.73656,235.8057 L 188.73656,242.04951 C 191.03862,242.33913 193.0958,243.42633 194.59965,245.05721 L 199.66323,241.25 C 196.98408,238.15743 193.0624,236.13519 188.73656,235.8057 z M 161.43891,238.01388 C 160.74366,239.33089 160.14204,240.73868 159.64953,242.16373 L 170.65235,248.55983 C 170.93424,247.01671 171.47094,245.55073 172.13715,244.18155 L 161.43891,238.01388 z M 201.0719,243.11553 L 195.93217,246.88466 C 196.74683,248.31388 197.22662,249.96033 197.22662,251.71981 C 197.22662,253.05604 196.9158,254.33162 196.42711,255.48894 L 201.94756,258.57278 C 202.95768,256.47744 203.54658,254.16224 203.54658,251.68174 C 203.54658,248.53869 202.64127,245.58775 201.0719,243.11553 z M 173.20317,244.75263 C 172.17186,246.86554 171.528,249.17366 171.528,251.68174 C 171.528,254.83533 172.49972,257.80861 174.07883,260.28602 C 174.08502,260.28597 174.14738,260.28586 174.15497,260.28602 L 179.14241,256.55496 C 178.32774,255.13547 177.84796,253.47929 177.84796,251.71981 C 177.84796,250.36223 178.14619,249.09322 178.64747,247.91261 C 178.64762,247.89732 178.64795,247.83959 178.64747,247.83646 L 173.20317,244.75263 z M 185.88116,245.55214 C 183.2728,246.29632 181.35059,248.88135 181.35059,251.71981 C 181.35059,255.13058 184.14554,257.84941 187.55633,257.84941 C 190.96711,257.84941 193.724,255.13058 193.724,251.71981 C 193.724,248.30902 190.96711,245.55214 187.55633,245.55214 C 187.32316,245.55213 187.02524,245.53646 186.79489,245.55214 C 186.78908,245.55203 186.72514,245.55237 186.71874,245.55214 C 186.71303,245.55236 186.68625,245.55228 186.68067,245.55214 C 186.67512,245.55206 186.61023,245.55181 186.60453,245.55214 C 186.59884,245.5524 186.53397,245.55228 186.52838,245.55214 C 186.52279,245.55206 186.45788,245.55178 186.45224,245.55214 C 186.4466,245.55243 186.41978,245.55231 186.41417,245.55214 C 186.40014,245.5523 186.34359,245.55224 186.33802,245.55214 C 186.3155,245.55142 186.20815,245.5526 186.18573,245.55214 C 186.16317,245.55136 186.09401,245.55265 186.07152,245.55214 C 186.04889,245.55133 185.94178,245.55271 185.91923,245.55214 C 185.8986,245.55777 185.9017,245.54628 185.88116,245.55214 z M 187.06139,247.34153 L 191.36353,249.70199 L 191.36353,253.47112 L 187.74669,256.02195 L 183.71105,253.69956 L 183.71105,249.93043 L 187.06139,247.34153 z M 204.34609,254.87979 C 204.05274,256.44132 203.54798,257.95299 202.86128,259.33422 L 213.71181,265.50189 C 214.4349,264.13518 214.99787,262.75979 215.5012,261.27589 L 204.34609,254.87979 z M 171.18535,256.78339 L 160.82976,264.43587 C 161.50704,265.8599 162.302,267.18478 163.19023,268.4715 L 173.20317,261.00939 C 172.35504,259.70764 171.65659,258.29739 171.18535,256.78339 z M 195.36109,257.50676 C 193.82309,259.57821 191.42246,261.01226 188.73656,261.35203 L 188.73656,267.59585 C 193.73832,267.2149 198.14862,264.52208 200.80539,260.59059 L 195.36109,257.50676 z M 180.55107,258.38242 L 175.48749,262.15155 C 178.19047,265.2529 182.09373,267.29716 186.45224,267.59585 L 186.45224,261.35203 C 184.12937,261.08845 182.07884,259.98514 180.55107,258.38242 z M 200.91961,260.32409 C 200.92029,260.33106 200.91942,260.39428 200.91961,260.40023 C 200.93089,260.39128 200.98472,260.3373 200.99575,260.32409 C 200.98958,260.32405 200.9272,260.32393 200.91961,260.32409 z M 201.71912,261.27589 C 200.83439,262.58513 199.76233,263.76104 198.55914,264.77852 L 209.75232,271.25076 C 210.76584,270.10001 211.66764,268.81929 212.49351,267.5197 L 201.71912,261.27589 z M 174.57376,262.83684 L 164.56082,270.29896 C 165.52508,271.49256 166.58432,272.54364 167.7208,273.57316 L 178.00025,265.92068 C 176.71948,265.05521 175.57605,264.00785 174.57376,262.83684 z M 181.84552,267.86235 L 181.84552,280.7307 C 183.33109,281.02072 184.85816,281.20479 186.41417,281.26371 L 186.41417,268.81415 C 184.83384,268.70916 183.28,268.36796 181.84552,267.86235 z M 193.26713,267.86235 C 191.83263,268.36796 190.27882,268.70916 188.69849,268.81415 L 188.69849,281.26371 C 190.2545,281.20479 191.78156,281.02069 193.26713,280.7307 L 193.26713,267.86235 z "
         id="path17489" />
      <path
         id="path17491"
         d="M 559.82966,218.29257 C 541.89236,218.86245 527.46843,233.6464 527.46843,251.71981 C 527.46843,270.15324 542.46224,285.10897 560.89567,285.10898 C 579.3291,285.10897 594.32292,270.15324 594.32292,251.71981 C 594.32293,233.28637 579.3291,218.29257 560.89567,218.29257 C 560.53564,218.29257 560.18697,218.28121 559.82966,218.29257 z M 560.28652,221.30026 C 560.48234,221.29653 560.69897,221.30026 560.89567,221.30026 C 577.68115,221.30027 591.23908,234.93433 591.23908,251.71981 C 591.23907,268.50529 577.68115,282.06322 560.89567,282.06322 C 544.11018,282.0632 530.47612,268.50529 530.47612,251.71981 C 530.47612,235.13104 543.77259,221.6142 560.28652,221.30026 z M 559.25858,222.21399 C 559.23992,222.23257 559.18451,222.28721 559.18243,222.29013 C 557.82236,222.3678 556.48975,222.56719 555.18487,222.82314 L 555.18487,235.5392 C 556.61935,235.03361 558.17319,234.69239 559.75351,234.5874 L 559.75351,222.29013 C 559.74842,222.29001 559.69163,222.29002 559.67737,222.29013 C 559.67426,222.28975 559.64513,222.29002 559.6393,222.29013 C 559.63251,222.29037 559.60719,222.29012 559.60122,222.29013 C 559.59407,222.28867 559.57114,222.2544 559.56315,222.25206 C 559.52022,222.23726 559.45053,222.22578 559.41086,222.21399 C 559.40843,222.21386 559.37578,222.21397 559.37279,222.21399 C 559.36598,222.21424 559.34056,222.21388 559.33472,222.21399 C 559.32037,222.21416 559.26352,222.21418 559.25858,222.21399 z M 562.03783,222.29013 L 562.03783,234.5874 C 563.61817,234.69239 565.17197,235.03363 566.60648,235.5392 L 566.60648,222.82314 C 565.1209,222.53173 563.59384,222.34936 562.03783,222.29013 z M 580.65506,229.86646 L 570.41368,237.48087 C 571.72291,238.36563 572.89883,239.43765 573.91631,240.64085 L 583.81504,233.25488 C 582.84907,232.06392 581.79199,230.89376 580.65506,229.86646 z M 538.69968,232.37922 C 537.67783,233.54465 536.71293,234.75574 535.88235,236.07221 L 546.61866,242.23987 C 547.4793,240.94582 548.49355,239.75161 549.66442,238.73725 L 538.69968,232.37922 z M 585.2237,235.04426 L 575.2869,242.46831 C 576.11473,243.75915 576.76896,245.19809 577.22857,246.6943 L 587.50802,239.0799 C 586.84117,237.68821 586.09176,236.30511 585.2237,235.04426 z M 559.10629,235.72956 C 554.36267,236.27535 550.23036,238.99755 547.68468,242.77288 L 553.16705,245.89479 C 554.63119,243.93379 556.75251,242.39983 559.25858,241.97337 C 559.28126,241.97372 559.38812,241.97291 559.41086,241.97337 C 559.43352,241.9737 559.50238,241.97296 559.52508,241.97337 C 559.53606,241.97282 559.58994,241.9733 559.60122,241.97337 C 559.64709,241.97542 559.74751,241.9748 559.79158,241.97337 L 559.79158,235.72956 C 559.77893,235.72937 559.76188,235.72942 559.75351,235.72956 C 559.68598,235.72849 559.55429,235.72983 559.48701,235.72956 C 559.47451,235.73003 559.42818,235.7295 559.41086,235.72956 C 559.39176,235.73132 559.35128,235.72986 559.33472,235.72956 C 559.32676,235.72916 559.30449,235.73003 559.29665,235.72956 C 559.27282,235.72845 559.21095,235.7265 559.18243,235.72956 C 559.14501,235.73358 559.14364,235.72526 559.10629,235.72956 z M 562.07591,235.8057 L 562.07591,242.04951 C 564.37797,242.33913 566.43515,243.42633 567.939,245.05721 L 573.00258,241.25 C 570.32343,238.15743 566.40174,236.13519 562.07591,235.8057 z M 534.77826,238.01388 C 534.08301,239.33089 533.48139,240.73868 532.98887,242.16373 L 543.99169,248.55983 C 544.27358,247.01671 544.81028,245.55073 545.4765,244.18155 L 534.77826,238.01388 z M 574.41124,243.11553 L 569.27152,246.88466 C 570.08618,248.31388 570.56597,249.96033 570.56597,251.71981 C 570.56597,253.05604 570.25514,254.33162 569.76646,255.48894 L 575.2869,258.57278 C 576.29702,256.47744 576.88593,254.16224 576.88593,251.68174 C 576.88593,248.53869 575.98062,245.58775 574.41124,243.11553 z M 546.54252,244.75263 C 545.51121,246.86554 544.86735,249.17366 544.86735,251.68174 C 544.86735,254.83533 545.83907,257.80861 547.41817,260.28602 C 547.42436,260.28597 547.48673,260.28586 547.49432,260.28602 L 552.48175,256.55496 C 551.66709,255.13547 551.18731,253.47929 551.18731,251.71981 C 551.18731,250.36223 551.48553,249.09322 551.98682,247.91261 C 551.98696,247.89732 551.98729,247.83959 551.98682,247.83646 L 546.54252,244.75263 z M 559.2205,245.55214 C 556.61215,246.29632 554.68993,248.88135 554.68993,251.71981 C 554.68993,255.13058 557.48488,257.84941 560.89567,257.84941 C 564.30645,257.84941 567.06334,255.13058 567.06334,251.71981 C 567.06334,248.30902 564.30645,245.55214 560.89567,245.55214 C 560.6625,245.55213 560.36459,245.53646 560.13423,245.55214 C 560.12842,245.55203 560.06448,245.55237 560.05809,245.55214 C 560.05237,245.55236 560.0256,245.55228 560.02002,245.55214 C 560.01446,245.55206 559.94957,245.55181 559.94387,245.55214 C 559.93818,245.5524 559.87332,245.55228 559.86773,245.55214 C 559.86214,245.55206 559.79722,245.55178 559.79158,245.55214 C 559.78594,245.55243 559.75913,245.55231 559.75351,245.55214 C 559.73949,245.5523 559.68294,245.55224 559.67737,245.55214 C 559.65484,245.55142 559.5475,245.5526 559.52508,245.55214 C 559.50252,245.55136 559.43335,245.55265 559.41086,245.55214 C 559.38824,245.55133 559.28113,245.55271 559.25858,245.55214 C 559.23795,245.55777 559.24104,245.54628 559.2205,245.55214 z M 560.40074,247.34153 L 564.70288,249.70199 L 564.70288,253.47112 L 561.08603,256.02195 L 557.0504,253.69956 L 557.0504,249.93043 L 560.40074,247.34153 z M 577.68544,254.87979 C 577.39208,256.44132 576.88733,257.95299 576.20063,259.33422 L 587.05116,265.50189 C 587.77425,264.13518 588.33721,262.75979 588.84054,261.27589 L 577.68544,254.87979 z M 544.5247,256.78339 L 534.16911,264.43587 C 534.84639,265.8599 535.64134,267.18478 536.52957,268.4715 L 546.54252,261.00939 C 545.69438,259.70764 544.99594,258.29739 544.5247,256.78339 z M 568.70044,257.50676 C 567.16244,259.57821 564.76181,261.01226 562.07591,261.35203 L 562.07591,267.59585 C 567.07767,267.2149 571.48797,264.52208 574.14474,260.59059 L 568.70044,257.50676 z M 553.89042,258.38242 L 548.82684,262.15155 C 551.52982,265.2529 555.43307,267.29716 559.79158,267.59585 L 559.79158,261.35203 C 557.46872,261.08845 555.41819,259.98514 553.89042,258.38242 z M 574.25896,260.32409 C 574.25964,260.33106 574.25876,260.39428 574.25896,260.40023 C 574.27024,260.39128 574.32406,260.3373 574.3351,260.32409 C 574.32892,260.32405 574.26655,260.32393 574.25896,260.32409 z M 575.05847,261.27589 C 574.17374,262.58513 573.10168,263.76104 571.89849,264.77852 L 583.09167,271.25076 C 584.10519,270.10001 585.00699,268.81929 585.83285,267.5197 L 575.05847,261.27589 z M 547.91311,262.83684 L 537.90017,270.29896 C 538.86443,271.49256 539.92366,272.54364 541.06014,273.57316 L 551.33959,265.92068 C 550.05883,265.05521 548.9154,264.00785 547.91311,262.83684 z M 555.18487,267.86235 L 555.18487,280.7307 C 556.67043,281.02072 558.19751,281.20479 559.75351,281.26371 L 559.75351,268.81415 C 558.17319,268.70916 556.61935,268.36796 555.18487,267.86235 z M 566.60648,267.86235 C 565.17197,268.36796 563.61817,268.70916 562.03783,268.81415 L 562.03783,281.26371 C 563.59384,281.20479 565.1209,281.02069 566.60648,280.7307 L 566.60648,267.86235 z "
         style="fill:#ffffff;fill-opacity:1;stroke:none;stroke-width:1;stroke-miterlimit:4;stroke-dasharray:none;stroke-opacity:1" />
      <path
         style="fill:none;fill-opacity:0.75;fill-rule:evenodd;stroke:#000000;stroke-width:0.89371073px;stroke-linecap:butt;stroke-linejoin:miter;stroke-opacity:1"
         d="M 120.186,238.47592 C 121.27157,150.53734 256.7631,145.41212 258.48427,248.99716"
         id="path17493"
         sodipodi:nodetypes="cc" />
      <path
         sodipodi:nodetypes="cc"
         id="path17495"
         d="M 493.48173,243.83599 C 493.98899,150.97769 626.74757,151.87842 627.05092,244.95972"
         style="fill:none;fill-opacity:0.75;fill-rule:evenodd;stroke:#000000;stroke-width:0.86047995px;stroke-linecap:butt;stroke-linejoin:miter;stroke-opacity:1" />
      <path
         id="path17497"
         d="M 372.36196,159.22882 C 370.68477,159.33354 369.37118,160.725 369.37118,162.42965 L 369.37118,163.07981 C 369.37118,164.85307 370.79874,166.28064 372.572,166.28064 L 399.40897,166.28064 C 401.18222,166.28064 402.60977,164.85307 402.60978,163.07981 L 402.60978,162.42965 C 402.60978,160.65639 401.18221,159.22882 399.40897,159.22882 L 372.572,159.22882 C 372.53044,159.22882 372.48315,159.22726 372.44198,159.22882 C 372.41518,159.22984 372.38858,159.22715 372.36196,159.22882 z M 373.26219,160.19908 C 373.30245,160.19719 373.34155,160.19985 373.38222,160.19908 C 373.40974,160.19856 373.43453,160.19908 373.46224,160.19908 L 392.19709,160.19908 C 392.06471,160.48488 391.98703,160.87522 391.98703,161.29936 L 391.98703,164.44017 C 391.98703,164.75881 392.02823,165.05152 392.10706,165.30039 L 373.46224,165.30039 C 371.68898,165.30039 370.26141,164.22971 370.26141,162.89977 L 370.26141,162.59969 C 370.26141,161.3212 371.5847,160.27759 373.26219,160.19908 z M 393.35739,160.19908 L 398.50873,160.19908 C 400.28198,160.19908 401.70955,161.26974 401.70955,162.59969 L 401.70955,162.89977 C 401.70955,164.22971 400.28198,165.30039 398.50873,165.30039 L 393.44742,165.30039 C 393.52625,165.05152 393.56744,164.75881 393.56744,164.44017 L 393.56744,161.29936 C 393.56744,160.87522 393.48978,160.48488 393.35739,160.19908 z "
         style="fill:#000000;fill-opacity:1;stroke:none;stroke-width:0.99470794;stroke-miterlimit:4;stroke-dasharray:none;stroke-opacity:1" />
      <path
         style="fill:#000000;fill-opacity:1;stroke:none;stroke-width:0.99470794;stroke-miterlimit:4;stroke-dasharray:none;stroke-opacity:1"
         d="M 504.84509,159.22882 C 503.16791,159.33354 501.85431,160.725 501.85431,162.42965 L 501.85431,163.07981 C 501.85431,164.85307 503.28188,166.28064 505.05514,166.28064 L 531.8921,166.28064 C 533.66535,166.28064 535.09291,164.85307 535.09292,163.07981 L 535.09292,162.42965 C 535.09292,160.65639 533.66534,159.22882 531.8921,159.22882 L 505.05514,159.22882 C 505.01358,159.22882 504.96628,159.22726 504.92511,159.22882 C 504.89832,159.22984 504.87171,159.22715 504.84509,159.22882 z M 505.74532,160.19908 C 505.78557,160.19719 505.82469,160.19985 505.86535,160.19908 C 505.89288,160.19856 505.91766,160.19908 505.94537,160.19908 L 524.68023,160.19908 C 524.54785,160.48488 524.47017,160.87522 524.47017,161.29936 L 524.47017,164.44017 C 524.47017,164.75881 524.51137,165.05152 524.5902,165.30039 L 505.94537,165.30039 C 504.17211,165.30039 502.74455,164.22971 502.74455,162.89977 L 502.74455,162.59969 C 502.74455,161.3212 504.06782,160.27759 505.74532,160.19908 z M 525.84053,160.19908 L 530.99185,160.19908 C 532.76512,160.19908 534.19269,161.26974 534.19269,162.59969 L 534.19269,162.89977 C 534.19269,164.22971 532.76512,165.30039 530.99185,165.30039 L 525.93055,165.30039 C 526.00938,165.05152 526.05057,164.75881 526.05057,164.44017 L 526.05057,161.29936 C 526.05057,160.87522 525.97292,160.48488 525.84053,160.19908 z "
         id="path17499" />
      <rect
         y="216.21358"
         x="627.56677"
         height="1.46984"
         width="30.866638"
         id="rect17501"
         style="fill:#000000;fill-opacity:1;stroke:none;stroke-width:2.5;stroke-miterlimit:4;stroke-dasharray:none;stroke-opacity:1" />
      <rect
         y="216.21358"
         x="627.56677"
         height="1.46984"
         width="30.866638"
         id="rect17503"
         style="fill:#000000;fill-opacity:1;stroke:none;stroke-width:2.5;stroke-miterlimit:4;stroke-dasharray:none;stroke-opacity:1" />
      <rect
         y="216.21358"
         x="627.56677"
         height="1.46984"
         width="30.866638"
         id="rect17505"
         style="fill:#000000;fill-opacity:1;stroke:none;stroke-width:2.5;stroke-miterlimit:4;stroke-dasharray:none;stroke-opacity:1" />
      <rect
         style="fill:#000000;fill-opacity:1;stroke:none;stroke-width:2.5;stroke-miterlimit:4;stroke-dasharray:none;stroke-opacity:1"
         id="rect17507"
         width="230.11642"
         height="1.46984"
         x="267.97235"
         y="216.21358" />
    </g>
  </g>
</svg>
